<?xml version="1.0" standalone="no"?>
<!DOCTYPE svg PUBLIC "-//W3C//DTD SVG 1.1//EN" "http://www.w3.org/Graphics/SVG/1.1/DTD/svg11.dtd" >
<svg xmlns="http://www.w3.org/2000/svg" xmlns:xlink="http://www.w3.org/1999/xlink" version="1.1" viewBox="0 0 256 256">
  <g transform="matrix(1 0 0 -1 0 204)">
   <path fill="currentColor"
d="M126 103q6 0 7 5q2 7 12 4q7 -4 17 -5q5 -3 1 -6q-6 -2 -12 1t-19 -1q-2 -1 -5 -1q-3 -1 -4 -1v-2q0 -30 4 -54q4 -25 11 -39q1 -4 -2 -4q-5 -2 -7 0q-8 13 -14 20q-10 11 -16 22q-3 5 2 1q11 -12 21 -17q1 -2 2 -1l1 3q-5 39 -6 69v1q-8 -2 -25 -7q-10 -2 -14 -3v-3
q-2 -76 -41 -91q-5 0 -1 2q37 19 38 88v3q-2 -1 -5 -1q-3 -1 -4 -1q-4 -2 -28 -7q-8 -2 -17 2q-2 1 0 2q18 -1 45 7q1 0 4 1q3 0 5 1l-2 42v6q-2 7 -6 5q-8 -3 -12 0q-4 5 5 19q1 1 1 -1q-6 -17 2 -12q6 3 19 -5q1 -2 0 -3q-3 -2 -3 -4v-25v-21q18 4 39 9v2q-1 14 -1 30
q0 15 2 38q1 7 -3 6q-6 -2 -16 -7q-14 -7 -24 -3q-2 1 1 2q19 3 38 14q4 1 8 -1q9 -8 14 -12q2 -3 1 -5q-2 -2 -4 -1q-8 2 -9 -2q-2 -13 -3 -29q-1 -15 0 -30v-1q0 -1 1 0t2 1zM216 78q5 -9 6 -9q1 -3 0 -3q-6 -5 -7 -9q-34 -44 -65 -60q-3 0 -1 2q43 31 58 58q7 12 7 20
q0 1 2 1zM208 136q1 -1 3 -4q2 -4 4 -4q1 -3 -1 -3q-3 -2 -7 -8v-1q-21 -33 -56 -62q-2 0 -1 2q33 33 49 60q0 1 1 3q7 10 6 17q0 1 2 0zM202 188q1 -2 4 -6q2 -3 3 -3v-3q-2 -2 -6 -5q-1 -2 -2 -3q-21 -31 -53 -54q-2 -1 -1 2q29 26 46 51q9 12 7 21h2zM113 117v-3
q-1 -1 -2 0q-6 2 -17 4q-8 0 0 2q7 0 -7 9q-2 1 1 2q19 -6 25 -14z" />
  </g>

</svg>
