<?xml version="1.0" standalone="no"?>
<!DOCTYPE svg PUBLIC "-//W3C//DTD SVG 1.1//EN" "http://www.w3.org/Graphics/SVG/1.1/DTD/svg11.dtd" >
<svg xmlns="http://www.w3.org/2000/svg" xmlns:xlink="http://www.w3.org/1999/xlink" version="1.1" viewBox="0 0 256 256">
  <g transform="matrix(1 0 0 -1 0 204)">
   <path fill="currentColor"
d="M156 160l-2 -4q-6 -12 -10 -17q20 6 45 26q2 2 1 3q-2 1 -5 0t-8 -3q-13 -4 -21 -5zM170 123h4q3 1 5 2q6 1 14 -3q2 -1 1 -2q0 -1 -2 -1q-13 -4 -48 -22q10 0 20 5q4 4 12 1q2 -1 1 -2q0 -2 -2 -2q-8 -1 -20 -7h-1q-5 -3 -2 1q2 1 -2 1q-9 -3 -17 -3q-5 0 -1 2q3 1 8 3
q-2 3 2 3q25 11 37 21q1 2 -2 2l-6 -2q-14 -2 -22 -5q-9 -4 -20 -5q-6 0 -15 -3l-1 -1q-3 -2 -2 -4q1 -3 8 -9q4 -3 5 -5q0 -4 -3 -3l-10 8q-5 6 -1 10q-1 3 4 6q33 12 56 14zM148 88q7 -4 10 -8q13 2 18 5q2 3 14 0q3 -1 0 -2l-21 -7q-1 -1 -2 -1q-5 -3 -1 1q2 2 0 2l-8 -2
q-2 -8 -1 -25q13 3 29 5q-1 5 8 4q13 -3 26 -10q1 -2 -1 -4q-1 -2 -3 0q-15 7 -25 7q-10 1 -34 -5v-23q1 -20 1 -27t7 -19q2 -2 3 -4q1 -1 0 -3q-1 -1 -3 -1q-8 4 -15 16q-6 8 2 9v1q3 0 3 3q0 27 -2 47q-42 -7 -60 -17q-5 -2 -4 1q1 4 3 3q0 -2 3 0q5 3 13 6q-2 2 2 4
q14 8 12 20q0 3 2 1q0 -1 2 -3q2 -3 5 -3q2 -3 2 -4t-3 -1q-4 -1 -15 -12q16 4 38 8q-2 12 -3 23q-9 -3 -30 -6q-6 -1 -1 2q6 1 12 3q4 1 18 5q0 6 -3 9q-2 3 2 2zM158 202q8 -7 7 -8q-3 -14 -1 -3q-2 -11 -7 -26q9 0 28 7q11 4 26 -3q3 -3 -2 -5q-5 1 -9 -2q-11 -7 -28 -15
l-8 -4q16 4 20 3h2q4 -4 0 -6q-41 -1 -73 -16q-5 -2 -4 2q3 7 5 5q1 -1 5 1q3 1 11 3q4 2 7 3q8 8 12 21q-10 -2 -14 -3q-6 -1 -12 0q-3 1 0 2l12 2l15 3q8 33 5 38v2q1 0 3 -1zM80 69q-2 4 2 2q15 -10 18 -24q1 -3 1 -4q-1 -1 -2 0q-6 1 -7 5q-2 2 -4 5q-5 9 -8 16zM59 106
q5 2 1 -2q-16 -14 -18 -20q-1 -3 -3 -3q-1 0 -2 3q-5 10 -1 14q5 2 7 12q0 2 2 2q1 0 2 -2q0 -3 -1 -7q0 -5 3 -3l3 2q4 2 7 4zM62 191q10 -8 9 -11q-1 -15 -1 -32v-39q13 4 21 16q4 5 2 8q-1 2 1 1q6 0 9 -3q1 -4 -1 -5q-1 -1 -2 -1q-2 -1 -4 -3q-11 -10 -26 -15
q-1 -76 -34 -104q-4 -3 -2 2q21 24 27 59q7 34 4 106q-1 16 -5 20q-2 2 2 1z" />
  </g>

</svg>
