<?xml version="1.0" encoding="UTF-8" standalone="no"?>
<!-- Created with Inkscape (http://www.inkscape.org/) -->

<svg
 xmlns:dc="http://purl.org/dc/elements/1.1/"
 xmlns:cc="http://creativecommons.org/ns#"
 xmlns:rdf="http://www.w3.org/1999/02/22-rdf-syntax-ns#"
 xmlns:svg="http://www.w3.org/2000/svg"
 xmlns="http://www.w3.org/2000/svg"
 xmlns:sodipodi="http://sodipodi.sourceforge.net/DTD/sodipodi-0.dtd"
 xmlns:inkscape="http://www.inkscape.org/namespaces/inkscape"
 width="512"
 height="512"
 viewBox="0 0 512 512"
 version="1.1"
 id="svg8"
 inkscape:version="0.92.4 (5da689c313, 2019-01-14)"
 sodipodi:docname="U+6C38.svg">
<defs
 id="defs2" />
<sodipodi:namedview
 id="base"
 pagecolor="#ffffff"
 bordercolor="#666666"
 borderopacity="1.0"
 inkscape:pageopacity="0.0"
 inkscape:pageshadow="2"
 inkscape:zoom="0.98994949"
 inkscape:cx="22.938821"
 inkscape:cy="358.3504"
 inkscape:document-units="px"
 inkscape:current-layer="layer1"
 showgrid="false"
 units="px"
 inkscape:window-width="1920"
 inkscape:window-height="1017"
 inkscape:window-x="-8"
 inkscape:window-y="-8"
 inkscape:window-maximized="1">
<inkscape:grid
 type="xygrid"
 id="grid826" />
</sodipodi:namedview>
<metadata
 id="metadata5">
<rdf:RDF>
<cc:Work
 rdf:about="">
<dc:format>image/svg+xml</dc:format>
<dc:type
 rdf:resource="http://purl.org/dc/dcmitype/StillImage" />
<dc:title />
</cc:Work>
</rdf:RDF>
</metadata>
<g
 inkscape:label="圖層 1"
 inkscape:groupmode="layer"
 id="layer1"
 transform="translate(0,-161.53331)">
<path
 style="fill:#000000;stroke:none;stroke-width:1px;stroke-linecap:butt;stroke-linejoin:miter;stroke-opacity:1;fill-opacity:1"
 d="M 203.57143,192.10474 C 203.57143,192.10474 225,183.53331 235.71429,188.53331 246.42857,193.53331 269.28571,211.39045 258.57143,224.96188 247.85714,238.53331 200.71429,198.53331 203.57143,192.10474 Z"
 id="path828"
 inkscape:connector-curvature="0" />
<path
 style="fill:#000000;stroke:none;stroke-width:1px;stroke-linecap:butt;stroke-linejoin:miter;stroke-opacity:1;fill-opacity:1"
 d="M 146.42857,329.96188 C 146.42857,329.96188 155,357.81902 167.14286,357.81902 179.28571,357.81902 206.42857,336.39045 211.42857,339.2476 216.42857,342.10474 205.71429,580.67617 200,581.39045 194.28571,582.10474 157.85714,559.96188 157.85714,565.67617 157.85714,571.39045 189.28571,647.81902 197.14286,647.81902 205,647.81902 221.42857,641.39045 218.57143,553.53331 215.71429,465.67617 217.85714,367.10474 235,344.2476 252.14286,321.39045 258.57143,325.67617 248.57143,313.53331 238.57143,301.39045 238.57143,296.39045 221.42857,306.39045 204.28571,316.39045 140.71429,324.2476 146.42857,329.96188 Z"
 id="path834"
 inkscape:connector-curvature="0" />
<path
 style="fill:#000000;stroke:none;stroke-width:1px;stroke-linecap:butt;stroke-linejoin:miter;stroke-opacity:1;fill-opacity:1"
 d="M 50,424.2476 C 40.062049,425.29075 43.569545,437.33879 59.285714,452.10474 73.981972,465.91244 90,432.81902 123.57143,419.2476 157.14286,405.67617 167.14286,400.67617 155,422.81902 142.85714,444.96188 105.71429,499.96188 101.42857,504.2476 97.142857,508.53331 47.142857,558.53331 37.142857,562.81902 27.142857,567.10474 52.857143,570.67617 83.571429,542.10474 114.28571,513.53331 153.57143,462.81902 162.85714,444.96188 172.14286,427.10474 177.14286,404.2476 180.71429,402.10474 184.28571,399.96188 180.71429,391.39045 172.85714,380.67617 165,369.96188 160.05946,379.13902 149.28571,392.10474 140.13706,403.11472 107.73863,419.1459 85,423.53331 62.154105,427.94142 56.104126,420.41458 50,424.2476 Z"
 id="path838"
 inkscape:connector-curvature="0"
 sodipodi:nodetypes="csssssssccssc" />
<path
 style="fill:#000000;stroke:none;stroke-width:1px;stroke-linecap:butt;stroke-linejoin:miter;stroke-opacity:1;fill-opacity:1"
 d="M 355,308.53331 C 349.64249,308.53331 367.69658,324.99408 352.85714,335.67617 334.5993,348.81898 239.10799,421.03843 230.71429,425.67617 222.58668,430.16689 197.85714,441.39045 195,431.39045 192.14286,421.39045 189.28571,417.10474 185,428.53331 180.71429,439.96188 183.57143,452.10474 200,448.53331 216.42857,444.96188 343.57143,359.2476 367.14286,350.67617 390.71429,342.10474 419.2336,336.89318 391.42857,318.53331 367.8935,302.99293 370.5593,302.54243 355,308.53331 Z"
 id="path840"
 inkscape:connector-curvature="0"
 sodipodi:nodetypes="csssssssc" />
<path
 style="fill:#000000;stroke:none;stroke-width:1px;stroke-linecap:butt;stroke-linejoin:miter;stroke-opacity:1;fill-opacity:1"
 d="M 190,418.53331 C 190,418.53331 202.14286,397.81902 217.14286,402.81902 232.14286,407.81902 287.85714,451.39045 297.85714,455.67617 307.85714,459.96188 434.28571,511.39045 467.14286,515.67617 500,519.96188 503.57143,529.96188 457.14286,530.67617 410.71429,531.39045 397.14286,534.2476 392.14286,537.81902 387.14286,541.39045 355.71429,527.81902 330.71429,505.67617 305.71429,483.53331 245.71429,422.81902 232.14286,417.81902 218.57143,412.81902 208.57143,412.81902 202.85714,416.39045 197.14286,419.96188 180,437.10474 190,418.53331 Z"
 id="path842"
 inkscape:connector-curvature="0" />
</g>
</svg>
