<?xml version="1.0" encoding="UTF-8" standalone="no"?>
<!-- Created with Inkscape (http://www.inkscape.org/) -->

<svg
 xmlns:dc="http://purl.org/dc/elements/1.1/"
 xmlns:cc="http://creativecommons.org/ns#"
 xmlns:rdf="http://www.w3.org/1999/02/22-rdf-syntax-ns#"
 xmlns:svg="http://www.w3.org/2000/svg"
 xmlns="http://www.w3.org/2000/svg"
 xmlns:sodipodi="http://sodipodi.sourceforge.net/DTD/sodipodi-0.dtd"
 xmlns:inkscape="http://www.inkscape.org/namespaces/inkscape"
 width="512"
 height="512"
 viewBox="0 0 512 512"
 version="1.1"
 id="svg8"
 inkscape:version="0.92.4 (5da689c313, 2019-01-14)"
 sodipodi:docname="U+52AD.svg">
<defs
 id="defs2" />
<sodipodi:namedview
 id="base"
 pagecolor="#ffffff"
 bordercolor="#666666"
 borderopacity="1.0"
 inkscape:pageopacity="0.0"
 inkscape:pageshadow="2"
 inkscape:zoom="0.98994949"
 inkscape:cx="17.540081"
 inkscape:cy="224.35473"
 inkscape:document-units="px"
 inkscape:current-layer="layer1"
 showgrid="false"
 units="px"
 inkscape:window-width="1920"
 inkscape:window-height="1017"
 inkscape:window-x="-8"
 inkscape:window-y="-8"
 inkscape:window-maximized="1">
<inkscape:grid
 type="xygrid"
 id="grid21" />
</sodipodi:namedview>
<metadata
 id="metadata5">
<rdf:RDF>
<cc:Work
 rdf:about="">
<dc:format>image/svg+xml</dc:format>
<dc:type
 rdf:resource="http://purl.org/dc/dcmitype/StillImage" />
<dc:title />
</cc:Work>
</rdf:RDF>
</metadata>
<g
 inkscape:label="圖層 1"
 inkscape:groupmode="layer"
 id="layer1"
 transform="translate(0,-161.53331)">
<path
 style="fill:#000000;stroke:none;stroke-width:1px;stroke-linecap:butt;stroke-linejoin:miter;stroke-opacity:1;fill-opacity:1"
 d="M 105.71429,244.96188 C 105.71429,244.96188 95.964492,269.47229 105.05586,275.53321 114.14724,281.59412 117.68277,276.03828 123.23861,280.07889 128.79445,284.1195 138.3909,291.69565 128.79445,306.84794 119.198,322.00022 67.175144,389.17537 62.124382,395.74136 57.073619,402.30735 51.51778,409.37842 61.619305,404.83273 71.720831,400.28705 126.77414,333.61698 129.8046,329.57637 132.83506,325.53576 153.54319,295.73626 150.51273,287.65504 147.48227,279.57382 127.7843,258.86569 124.75384,257.35046 121.72338,255.83523 108.89809,240.65452 105.71429,244.96188 Z"
 id="path23"
 inkscape:connector-curvature="0" />
<path
 style="fill:#000000;stroke:none;stroke-width:1px;stroke-linecap:butt;stroke-linejoin:miter;stroke-opacity:1;fill-opacity:1"
 d="M 152.02796,298.26164 C 152.02796,298.26164 149.50258,307.35301 157.5838,312.40377 165.66502,317.45454 178.29192,324.52561 187.3833,323.01038 196.47467,321.49515 197.48482,325.53576 194.95944,332.60683 192.43406,339.67789 169.20055,391.19567 166.67517,396.24644 164.14979,401.2972 162.12948,414.93426 166.67517,408.87334 171.22086,402.81243 213.14219,339.17282 219.70818,336.64744 226.27417,334.12205 263.14474,330.58652 264.65997,325.53576 266.1752,320.485 264.65997,298.26164 253.04321,291.69565 241.42646,285.12966 244.45692,285.12966 230.31478,294.22103 216.17264,303.3124 186.37314,306.84794 181.32238,306.84794 176.27162,306.84794 153.54319,292.7058 152.02796,298.26164 Z"
 id="path25"
 inkscape:connector-curvature="0" />
<path
 style="fill:#000000;stroke:none;stroke-width:1px;stroke-linecap:butt;stroke-linejoin:miter;stroke-opacity:1;fill-opacity:1"
 d="M 76.771593,413.92411 C 76.771593,413.92411 72.225907,419.47994 78.286822,425.03578 84.347738,430.59162 115.66247,494.23123 114.65231,500.29215 113.64216,506.35306 111.62186,512.91906 115.15739,516.95967 118.69292,521.00028 127.27922,533.62718 132.32998,531.1018 137.38075,528.57642 134.35029,500.79722 126.26907,471.5028 118.18785,442.20838 114.65231,435.13731 118.18785,428.57132 121.72338,422.00533 103.03556,414.42918 97.984797,414.42918 92.934034,414.42918 81.31728,410.38857 76.771593,413.92411 Z"
 id="path27"
 inkscape:connector-curvature="0" />
<path
 style="fill:#000000;stroke:none;stroke-width:1px;stroke-linecap:butt;stroke-linejoin:miter;stroke-opacity:1;fill-opacity:1"
 d="M 108.08632,400.79212 C 108.08632,400.79212 113.13709,423.01548 118.18785,425.03578 123.23861,427.05609 132.32998,433.62208 144.95689,428.06624 157.5838,422.5104 188.39345,409.37842 197.48482,410.89365 206.5762,412.40888 209.10158,406.34796 207.58635,437.66269 206.07112,468.97742 205.56604,486.65509 210.11173,488.67539 214.65742,490.6957 230.81986,442.71345 236.88077,432.10685 242.94169,421.50025 243.44676,417.96472 253.04321,412.40888 262.63966,406.85304 267.69042,402.81243 252.53814,392.7109 237.38585,382.60938 227.28432,371.4977 222.23356,375.53831 217.1828,379.57892 211.12188,395.23628 207.08127,395.23628 203.04066,395.23628 145.46197,404.83273 138.3909,405.33781 131.31983,405.84289 111.62186,397.76166 108.08632,400.79212 Z"
 id="path29"
 inkscape:connector-curvature="0" />
<path
 style="fill:#000000;stroke:none;stroke-width:1px;stroke-linecap:butt;stroke-linejoin:miter;stroke-opacity:1;fill-opacity:1"
 d="M 121.72338,479.07894 C 121.72338,479.07894 132.83506,483.11956 145.46197,481.09925 158.08887,479.07894 205.56604,466.45204 208.5965,469.4825 211.62696,472.51295 217.68787,488.17032 211.62696,490.19062 205.56604,492.21093 173.24116,493.72616 167.18025,495.74646 161.11933,497.76677 135.36044,504.83783 129.8046,501.3023 124.24876,497.76677 117.68277,487.16017 121.72338,479.07894 Z"
 id="path33"
 inkscape:connector-curvature="0" />
<path
 style="fill:#000000;stroke:none;stroke-width:1px;stroke-linecap:butt;stroke-linejoin:miter;stroke-opacity:1;fill-opacity:1"
 d="M 284.86302,333.1119 C 284.86302,333.1119 296.47977,355.84033 302.03561,354.83018 307.59145,353.82003 377.29198,332.60683 389.41381,330.08144 401.53564,327.55606 429.81991,308.36316 430.83006,315.43423 431.84021,322.5053 358.09908,505.34291 346.48232,504.33276 334.86557,503.32261 314.66252,490.19062 312.13714,489.18047 309.61176,488.17032 304.05592,487.16017 307.59145,494.23123 311.12698,501.3023 327.7945,531.1018 326.27927,537.16272 324.76404,543.22363 326.27927,557.87084 334.36049,556.35561 342.44171,554.84039 363.65492,540.19317 364.15999,521.50535 364.66507,502.81753 452.04326,342.70835 457.09403,338.16266 462.14479,333.61698 470.73109,322.5053 474.7717,320.99007 478.81231,319.47484 477.80215,311.8987 466.1854,305.83778 454.56865,299.77687 445.47727,289.17027 439.92143,290.6855 434.36559,292.20072 383.35289,314.92916 369.71583,318.46469 356.07877,322.00022 314.66252,330.58652 309.61176,330.58652 304.56099,330.58652 287.89348,325.53576 284.86302,333.1119 Z"
 id="path35"
 inkscape:connector-curvature="0" />
<path
 style="fill:#000000;stroke:none;stroke-width:1px;stroke-linecap:butt;stroke-linejoin:miter;stroke-opacity:1;fill-opacity:1"
 d="M 335.87572,286.64488 C 335.87572,286.64488 345.97725,302.30225 345.97725,309.87839 345.97725,317.45454 306.5813,416.44949 302.03561,422.5104 297.48992,428.57132 232.84016,513.42413 228.29448,517.46474 223.74879,521.50535 190.91883,544.73886 189.90868,549.78962 188.89853,554.84039 244.96199,519.48505 247.48737,516.45459 250.01276,513.42413 314.15744,443.72361 316.17775,438.67284 318.19805,433.62208 370.72598,318.46469 374.76659,313.919 378.8072,309.37332 384.36304,307.85809 372.74629,301.2921 361.12954,294.72611 336.3808,274.52305 335.87572,286.64488 Z"
 id="path37"
 inkscape:connector-curvature="0" />
</g>
</svg>
