<?xml version="1.0" encoding="UTF-8" standalone="no"?>
<!-- Created with Inkscape (http://www.inkscape.org/) -->

<svg
 xmlns:dc="http://purl.org/dc/elements/1.1/"
 xmlns:cc="http://creativecommons.org/ns#"
 xmlns:rdf="http://www.w3.org/1999/02/22-rdf-syntax-ns#"
 xmlns:svg="http://www.w3.org/2000/svg"
 xmlns="http://www.w3.org/2000/svg"
 xmlns:sodipodi="http://sodipodi.sourceforge.net/DTD/sodipodi-0.dtd"
 xmlns:inkscape="http://www.inkscape.org/namespaces/inkscape"
 width="591"
 height="591"
 viewBox="0 0 591 591"
 version="1.1"
 id="svg8"
 inkscape:version="0.92.4 (5da689c313, 2019-01-14)"
 sodipodi:docname="U+65A1.svg">
<defs
 id="defs2" />
<sodipodi:namedview
 id="base"
 pagecolor="#ffffff"
 bordercolor="#666666"
 borderopacity="1.0"
 inkscape:pageopacity="0.0"
 inkscape:pageshadow="2"
 inkscape:zoom="0.79950023"
 inkscape:cx="329.27108"
 inkscape:cy="242.24857"
 inkscape:document-units="px"
 inkscape:current-layer="layer1"
 showgrid="false"
 units="px"
 inkscape:window-width="1920"
 inkscape:window-height="1017"
 inkscape:window-x="-8"
 inkscape:window-y="-8"
 inkscape:window-maximized="1">
<inkscape:grid
 type="xygrid"
 id="grid21" />
</sodipodi:namedview>
<metadata
 id="metadata5">
<rdf:RDF>
<cc:Work
 rdf:about="">
<dc:format>image/svg+xml</dc:format>
<dc:type
 rdf:resource="http://purl.org/dc/dcmitype/StillImage" />
<dc:title />
</cc:Work>
</rdf:RDF>
</metadata>
<g
 inkscape:label="圖層 1"
 inkscape:groupmode="layer"
 id="layer1"
 transform="translate(0,-140.63124)">
<path
 style="fill:#000000;stroke:none;stroke-width:1px;stroke-linecap:butt;stroke-linejoin:miter;stroke-opacity:1;fill-opacity:1"
 d="m 176.36018,210.68079 c 0,0 20.0125,23.13946 20.0125,33.14571 0,10.00625 -20.95059,73.17071 -22.20137,76.92305 -1.25078,3.75235 0.31269,12.19512 4.37773,6.8793 4.06504,-5.31582 43.15196,-85.99122 43.46466,-89.74356 0.31269,-3.75235 -11.88243,-16.57286 -22.20137,-22.51407 -10.31895,-5.94121 -23.13946,-15.63477 -23.45215,-4.69043 z"
 id="path23"
 inkscape:connector-curvature="0" />
<path
 style="fill:#000000;stroke:none;stroke-width:1px;stroke-linecap:butt;stroke-linejoin:miter;stroke-opacity:1;fill-opacity:1"
 d="m 112.57032,274.47064 c 0,0 0.6254,15.00938 4.37774,16.26016 3.75234,1.25078 18.13633,8.44278 21.88867,8.13008 3.75235,-0.31269 4.06504,-10.31895 9.06817,-11.88242 5.00312,-1.56348 18.13633,-7.50469 25.32832,-8.75547 7.19199,-1.25078 72.85802,-15.63477 81.61349,-14.38399 8.75547,1.25078 24.39023,7.19199 30.95684,6.25391 6.5666,-0.93809 19.07441,-36.58536 10.31894,-32.52032 -8.75547,4.06504 -47.52969,18.13633 -54.40899,18.76172 -6.87929,0.62539 -94.1213,20.01251 -97.56095,19.38711 -3.43964,-0.62539 -35.02187,-6.5666 -31.58223,-1.25078 z"
 id="path25"
 inkscape:connector-curvature="0" />
<path
 style="fill:#000000;stroke:none;stroke-width:1px;stroke-linecap:butt;stroke-linejoin:miter;stroke-opacity:1;fill-opacity:1"
 d="m 106.62911,321.68764 c 0,0 20.3252,11.88242 21.88868,36.89805 1.56347,25.01563 13.4459,86.92931 13.4459,86.92931 0,0 4.37773,7.81738 5.62851,6.2539 1.25078,-1.56347 -0.31269,-100.3752 -2.81425,-106.31641 -2.50157,-5.94121 -11.56973,-17.82364 -20.6379,-22.20137 -9.06816,-4.37774 -17.51094,-8.13008 -17.51094,-1.56348 z"
 id="path27"
 inkscape:connector-curvature="0" />
<path
 style="fill:#000000;stroke:none;stroke-width:1px;stroke-linecap:butt;stroke-linejoin:miter;stroke-opacity:1;fill-opacity:1"
 d="m 159.16193,326.69077 c 0,0 18.76172,10.63164 24.70293,7.50468 5.94122,-3.12695 47.84239,-15.94746 53.15821,-14.38398 5.31582,1.56348 14.38399,0.62539 14.07129,5.31582 -0.31269,4.69043 -28.45527,84.11505 -28.76797,91.30704 -0.31269,7.19199 -0.62539,26.8918 2.50156,29.70606 3.12696,2.81426 27.82989,-85.36583 35.95997,-98.18634 8.13008,-12.82051 18.13633,-26.5791 13.4459,-32.83301 -4.69043,-6.25391 -17.19825,-17.19825 -34.08379,-11.56973 -16.88555,5.62852 -43.15196,15.63477 -49.40587,14.69668 -6.25391,-0.93808 -16.88555,-7.19199 -25.32832,-3.43965 -8.44278,3.75235 -5.62852,12.19512 -6.25391,11.88243 z"
 id="path29"
 inkscape:connector-curvature="0" />
<path
 style="fill:#000000;stroke:none;stroke-width:1px;stroke-linecap:butt;stroke-linejoin:miter;stroke-opacity:1;fill-opacity:1"
 d="m 151.65724,378.2855 c 0,0 12.19512,20.63789 19.07442,20.63789 6.8793,0 15.94746,-11.25703 20.95059,-13.1332 5.00312,-1.87618 18.76172,-1.25078 18.76172,-2.50157 0,-1.25078 10.31894,-5.94121 5.31582,-14.38398 -5.00313,-8.44278 -16.57285,-6.25391 -25.64102,-3.12696 -9.06816,3.12696 -37.83614,1.25079 -38.46153,12.50782 z"
 id="path31"
 inkscape:connector-curvature="0" />
<path
 style="fill:#000000;stroke:none;stroke-width:1px;stroke-linecap:butt;stroke-linejoin:miter;stroke-opacity:1;fill-opacity:1"
 d="m 115.69728,445.515 c 0,0 14.38398,13.1332 17.82363,13.4459 3.43965,0.31269 75.04689,-23.76485 82.23888,-21.88868 7.19199,1.87618 8.44277,13.7586 10.94434,13.4459 2.50156,-0.31269 24.07754,-39.71231 20.63789,-43.46465 -3.43965,-3.75234 -6.25391,-6.25391 -17.82364,1.87617 -11.56972,8.13008 -78.79922,27.51719 -78.79922,27.51719 0,0 -38.14884,0.93809 -35.02188,9.06817 z"
 id="path35"
 inkscape:connector-curvature="0" />
<path
 style="fill:#000000;stroke:none;stroke-width:1px;stroke-linecap:butt;stroke-linejoin:miter;stroke-opacity:1;fill-opacity:1"
 d="m 19.699807,513.68258 c 0,0 9.693556,26.57911 22.201369,26.26641 12.507814,-0.31269 6.559268,-12.22524 45.02813,-21.57598 38.449954,-9.34614 127.766394,-29.95342 148.217594,-23.13945 20.57477,6.85514 23.13945,14.38399 26.5791,13.13321 3.43965,-1.25079 18.44903,-15.63477 15.00938,-21.57599 -3.43965,-5.94121 -8.12138,-12.62111 -15.94746,-15.32207 -7.38491,-2.5487 -9.44733,-1.61511 -27.2045,6.25391 -11.44957,5.07383 -51.28203,0.62539 -114.1338,18.13633 -62.851762,17.51094 -67.542193,12.8205 -67.542193,12.8205 0,0 -41.588481,-8.44277 -32.20762,5.00313 z"
 id="path37"
 inkscape:connector-curvature="0"
 sodipodi:nodetypes="cssscsssscc" />
<path
 style="fill:#000000;stroke:none;stroke-width:1px;stroke-linecap:butt;stroke-linejoin:miter;stroke-opacity:1;fill-opacity:1"
 d="m 169.16818,453.95777 c 0,1.25078 8.75547,7.81739 10.00625,13.13321 1.25078,5.31582 -2.18886,116.63536 -5.62851,118.51153 -3.43965,1.87618 -12.82051,-1.25078 -11.88243,3.12696 0.93809,4.37773 9.52566,36.46073 16.26016,36.58535 13.11451,0.24268 20.23263,-74.20836 20.3252,-83.80235 0.0907,-9.40125 3.12695,-70.04376 3.12695,-72.54532 0,-2.50156 -9.06816,-16.57285 -18.44902,-20.3252 -9.38086,-3.75234 -24.07754,-9.69355 -13.7586,5.31582 z"
 id="path39"
 inkscape:connector-curvature="0"
 sodipodi:nodetypes="csccssssc" />
<path
 style="fill:#000000;stroke:none;stroke-width:1px;stroke-linecap:butt;stroke-linejoin:miter;stroke-opacity:1;fill-opacity:1"
 d="m 340.50786,238.55817 c 0,0 6.63327,24.76421 6.19105,31.8397 -0.44222,7.07548 -45.54845,90.65469 -58.81499,98.17239 -13.26654,7.51771 -30.95526,7.95993 -34.93522,14.5932 -3.97997,6.63327 6.63327,16.80428 13.70875,16.36206 7.07549,-0.44222 25.64865,4.42218 44.2218,-33.16635 18.57316,-37.58853 45.10624,-91.98134 45.10624,-91.98134 0,0 8.40214,-1.76887 7.95992,-2.65331 -0.44221,-0.88444 9.7288,-7.95992 -4.42218,-19.89981 -14.15097,-11.93989 -8.84436,-12.3821 -19.01537,-13.26654 z"
 id="path41"
 inkscape:connector-curvature="0" />
<path
 style="fill:#000000;stroke:none;stroke-width:1px;stroke-linecap:butt;stroke-linejoin:miter;stroke-opacity:1;fill-opacity:1"
 d="m 377.87528,263.10127 c 0,0 14.5932,-3.75885 30.07083,13.70876 15.47763,17.46761 58.81499,58.81499 73.18707,65.89048 68.35071,54.18652 124.2874,55.42046 62.13163,57.26723 -4.42218,5.30662 -15.47763,14.8143 -20.56313,13.92987 -5.08551,-0.88444 -49.97064,-43.11626 -57.48834,-53.06616 -7.51771,-9.94991 -63.9005,-75.17706 -66.77492,-77.60926 -2.87442,-2.4322 -16.36207,-9.7288 -19.23648,-10.61323 -2.87442,-0.88444 -8.62326,-5.96995 -1.32666,-9.50769 z"
 id="path43"
 inkscape:connector-curvature="0"
 sodipodi:nodetypes="cscccsscc" />
<path
 style="fill:#000000;stroke:none;stroke-width:1px;stroke-linecap:butt;stroke-linejoin:miter;stroke-opacity:1;fill-opacity:1"
 d="m 288.76835,397.31443 c 0,0 -4.20107,6.63327 11.05545,13.04543 15.25653,6.41216 -13.48764,14.15098 -13.48764,14.15098 0,0 -7.51771,5.96994 7.29659,5.52772 14.81431,-0.44221 24.5431,9.06547 28.30195,2.21109 3.75886,-6.85438 14.15098,-21.88979 -6.63327,-29.6286 -20.78424,-7.73882 -22.332,-8.40214 -26.53308,-5.30662 z"
 id="path47"
 inkscape:connector-curvature="0" />
<path
 style="fill:#000000;stroke:none;stroke-width:1px;stroke-linecap:butt;stroke-linejoin:miter;stroke-opacity:1;fill-opacity:1"
 d="m 285.89394,453.0339 c 0,0 24.98531,2.4322 31.61858,6.85438 6.63327,4.42218 6.63327,15.69874 3.75886,17.46761 -2.87442,1.76887 -18.57316,4.64329 -26.53308,-3.09553 -7.95993,-7.73881 -15.69874,-13.48765 -8.84436,-21.22646 z"
 id="path51"
 inkscape:connector-curvature="0" />
<path
 style="fill:#000000;stroke:none;stroke-width:1px;stroke-linecap:butt;stroke-linejoin:miter;stroke-opacity:1;fill-opacity:1"
 d="m 257.14977,499.6879 c 0,0 5.0855,13.92987 17.90983,21.22646 12.82432,7.2966 15.03541,-3.75885 15.03541,-3.75885 0,0 12.36708,-11.32219 36.48298,-19.23648 24.22742,-7.95089 90.96941,-20.19624 93.57165,-20.56314 7.66302,-1.08043 26.04832,0.22111 32.68159,3.53774 6.63327,3.31664 19.6787,0.88444 21.66868,-2.4322 1.98999,-3.31663 5.96995,-9.50768 -0.88443,-12.16099 -6.85438,-2.65331 -20.0668,-0.97165 -38.47297,0 -17.83404,0.94145 -84.87277,14.52746 -84.97061,15.31017 0,0 -44.15704,12.32845 -55.21249,16.75063 -11.05545,4.42218 -44.44291,-8.40214 -37.80964,1.32666 z"
 id="path53"
 inkscape:connector-curvature="0"
 sodipodi:nodetypes="cscssccsscsc" />
<path
 style="fill:#000000;stroke:none;stroke-width:1px;stroke-linecap:butt;stroke-linejoin:miter;stroke-opacity:1;fill-opacity:1"
 d="m 348.46778,325.2329 c 0,0 13.26654,21.66868 19.01538,28.74417 5.74883,7.07549 3.09552,188.82708 3.09552,188.82708 0,0 -6.63327,116.30334 -11.49766,118.51443 -4.8644,2.21109 -11.93989,0.88443 -13.26654,5.30661 -1.32666,4.42218 12.3821,35.81966 10.61323,38.91519 -1.76887,3.09552 1.32665,13.70876 7.95992,9.72879 6.63327,-3.97996 12.82432,-18.13093 12.82432,-49.52841 0,-31.39748 9.28658,-214.91795 9.28658,-214.91795 l 2.1084,-46.56241 c 0,0 13.81145,-48.07224 2.31378,-59.12769 -11.49767,-11.05545 -42.89514,-34.49301 -42.45293,-19.89981 z"
 id="path55"
 inkscape:connector-curvature="0"
 sodipodi:nodetypes="cscscccsccsc" />
</g>
</svg>
