<?xml version="1.0" encoding="UTF-8" standalone="no"?>
<!-- Created with Inkscape (http://www.inkscape.org/) -->

<svg
 xmlns:dc="http://purl.org/dc/elements/1.1/"
 xmlns:cc="http://creativecommons.org/ns#"
 xmlns:rdf="http://www.w3.org/1999/02/22-rdf-syntax-ns#"
 xmlns:svg="http://www.w3.org/2000/svg"
 xmlns="http://www.w3.org/2000/svg"
 xmlns:sodipodi="http://sodipodi.sourceforge.net/DTD/sodipodi-0.dtd"
 xmlns:inkscape="http://www.inkscape.org/namespaces/inkscape"
 width="512"
 height="512"
 viewBox="0 0 512 512"
 version="1.1"
 id="svg8"
 inkscape:version="0.92.4 (5da689c313, 2019-01-14)"
 sodipodi:docname="U+6666.svg">
<defs
 id="defs2" />
<sodipodi:namedview
 id="base"
 pagecolor="#ffffff"
 bordercolor="#666666"
 borderopacity="1.0"
 inkscape:pageopacity="0.0"
 inkscape:pageshadow="2"
 inkscape:zoom="1.1306641"
 inkscape:cx="327.23829"
 inkscape:cy="314.81887"
 inkscape:document-units="px"
 inkscape:current-layer="layer1"
 showgrid="false"
 units="px"
 inkscape:window-width="1920"
 inkscape:window-height="1017"
 inkscape:window-x="-8"
 inkscape:window-y="-8"
 inkscape:window-maximized="1">
<inkscape:grid
 type="xygrid"
 id="grid21" />
</sodipodi:namedview>
<metadata
 id="metadata5">
<rdf:RDF>
<cc:Work
 rdf:about="">
<dc:format>image/svg+xml</dc:format>
<dc:type
 rdf:resource="http://purl.org/dc/dcmitype/StillImage" />
<dc:title />
</cc:Work>
</rdf:RDF>
</metadata>
<g
 inkscape:label="圖層 1"
 inkscape:groupmode="layer"
 id="layer1"
 transform="translate(0,-161.53331)">
<path
 style="fill:#000000;stroke:none;stroke-width:1px;stroke-linecap:butt;stroke-linejoin:miter;stroke-opacity:1;fill-opacity:1"
 d="m 75.046883,325.19069 c 0,0 -3.752344,5.62852 -2.188867,7.50469 1.563476,1.87617 10.944337,10.31895 11.257032,12.82051 0.312696,2.50156 -5.315821,110.69415 -6.879297,117.57345 -1.563477,6.8793 3.439648,21.26329 8.755469,29.39336 5.315821,8.13008 6.879298,12.19512 10.006251,11.25704 3.126954,-0.93809 3.752345,-29.08067 2.188868,-31.89493 -1.563477,-2.81426 -7.817384,-43.77735 -6.879298,-54.09629 0.938086,-10.31895 7.817384,-59.72481 11.257029,-61.91368 3.43965,-2.18887 5.31582,-13.4459 -6.879294,-21.26329 -12.195118,-7.81738 -17.198244,-12.19511 -20.637893,-9.38086 z"
 id="path23"
 inkscape:connector-curvature="0" />
<path
 style="fill:#000000;stroke:none;stroke-width:1px;stroke-linecap:butt;stroke-linejoin:miter;stroke-opacity:1;fill-opacity:1"
 d="m 107.87989,320.81296 c 0,0 -7.81738,11.25703 -5.62851,13.4459 2.18887,2.18887 15.94746,9.06816 19.69981,7.81738 3.75234,-1.25078 28.45527,-18.13633 32.83301,-15.94746 4.37773,2.18887 9.38086,14.69668 8.13008,23.45215 -1.25079,8.75547 -14.0713,172.92053 -16.26016,176.04748 -2.18887,3.12695 -9.69356,6.5666 -9.06817,9.69356 0.62539,3.12695 11.25703,15.63476 14.38399,16.88555 3.12695,1.25078 8.13008,-4.06504 8.13008,-7.81739 0,-3.75234 -3.75235,-15.32207 -2.81426,-19.07441 0.93809,-3.75235 16.57285,-154.47151 18.13633,-158.53654 1.56348,-4.06504 15.63477,-34.39649 14.07129,-39.08692 -1.56348,-4.69043 -23.13946,-20.6379 -31.58223,-21.57598 -8.44277,-0.93809 -13.1332,1.56347 -15.94746,9.06816 -2.81426,7.50469 -36.89805,2.18887 -34.0838,5.62852 z"
 id="path25"
 inkscape:connector-curvature="0" />
<path
 style="fill:#000000;stroke:none;stroke-width:1px;stroke-linecap:butt;stroke-linejoin:miter;stroke-opacity:1;fill-opacity:1"
 d="m 87.592633,408.77844 c 0,0 7.154057,0.5273 11.219097,-0.41078 4.06504,-0.93809 25.01563,-14.38399 28.45528,-14.69669 3.43964,-0.31269 15.32207,2.18887 14.38398,5.00313 1.83026,2.81426 0.59062,8.63089 -3.12695,11.88242 -5.51767,4.82597 -11.97827,9.10606 -19.07442,10.94434 -5.47874,1.41928 -14.47557,1.32665 -16.97713,-0.23683 -2.501565,1.70482 -14.605098,-4.02348 -15.230488,-7.58055 -0.552188,-3.14071 -2.150931,-0.84 0.350631,-4.90504 z"
 id="path31"
 inkscape:connector-curvature="0"
 sodipodi:nodetypes="ccccsacsc" />
<path
 style="fill:#000000;stroke:none;stroke-width:1px;stroke-linecap:butt;stroke-linejoin:miter;stroke-opacity:1;fill-opacity:1"
 d="m 32.833011,500.30009 c 0,0 -6.879297,10.31894 -2.814258,15.00937 4.06504,4.69043 12.507814,27.2045 18.761721,26.57911 6.253907,-0.62539 8.75547,-1.25078 13.4459,-6.25391 4.69043,-5.00312 95.997476,-61.28829 101.625986,-60.3502 5.62852,0.93809 15.00938,0.93809 15.00938,-4.06504 0,-5.00312 -24.70293,-15.63477 -27.2045,-12.19512 -2.50156,3.43965 -0.62539,10.94434 -5.62851,13.4459 -5.00313,2.50156 -87.867396,37.83614 -94.746693,36.58536 -6.879298,-1.25078 -14.071291,-12.82051 -18.449026,-8.75547 z"
 id="path33"
 inkscape:connector-curvature="0" />
<path
 style="fill:#000000;stroke:none;stroke-width:1px;stroke-linecap:butt;stroke-linejoin:miter;stroke-opacity:1;fill-opacity:1"
 d="m 265.16565,268.90553 c 0,0 14.07129,31.26954 12.19512,35.95997 -1.87617,4.69043 -22.51406,46.27891 -25.32832,49.09317 -2.81426,2.81425 -6.5666,13.4459 0.31269,11.25703 6.8793,-2.18887 44.40274,-50.65665 46.27892,-56.28516 1.87617,-5.62852 0.62539,-37.21075 -10.00626,-41.58849 -10.63164,-4.37773 -22.20136,-6.5666 -23.45215,1.56348 z"
 id="path35"
 inkscape:connector-curvature="0" />
<path
 style="fill:#000000;stroke:none;stroke-width:1px;stroke-linecap:butt;stroke-linejoin:miter;stroke-opacity:1;fill-opacity:1"
 d="m 305.81605,302.98932 c 0,0 5.62852,18.76173 12.50781,20.3252 6.8793,1.56348 87.5547,-13.75859 94.1213,-12.19512 6.5666,1.56348 19.69981,-7.50468 8.13008,-15.32207 -11.56973,-7.81738 -17.82363,-10.94434 -38.77422,-3.12695 -20.95059,7.81738 -47.84239,15.63477 -53.47091,15.63477 -5.62851,0 -17.82363,-11.88243 -22.51406,-5.31583 z"
 id="path37"
 inkscape:connector-curvature="0" />
<path
 style="fill:#000000;stroke:none;stroke-width:1px;stroke-linecap:butt;stroke-linejoin:miter;stroke-opacity:1;fill-opacity:1"
 d="m 298.93675,361.77605 c 0,0 2.50156,18.44902 1.87617,20.63789 -0.62539,2.18887 -37.52344,106.31642 -45.96621,107.5672 -8.44278,1.25078 -17.82364,-6.8793 -20.6379,-2.50156 -2.81425,4.37773 -5.00312,27.20449 3.12696,29.39336 8.13008,2.18887 16.88555,-11.88242 29.70606,-12.82051 12.82051,-0.93808 153.53341,35.33458 164.47775,42.52657 10.94434,7.19199 14.07129,-11.88242 3.12695,-19.07442 -10.94434,-7.19199 -4.69043,-1.25078 -24.07754,-5.62851 -19.38711,-4.37774 -134.77169,-30.64415 -136.02248,-32.83301 -1.25078,-2.18887 43.46466,-80.36271 43.46466,-93.18322 0,-12.82051 -16.57286,-41.58848 -19.07442,-34.08379 z"
 id="path39"
 inkscape:connector-curvature="0" />
<path
 style="fill:#000000;stroke:none;stroke-width:1px;stroke-linecap:butt;stroke-linejoin:miter;stroke-opacity:1;fill-opacity:1"
 d="m 316.135,364.59031 c 0,0 4.06503,18.13633 11.88242,18.44902 7.81738,0.3127 39.71231,-13.1332 46.59161,-10.00625 6.87929,3.12696 19.38711,7.50469 15.00937,27.82989 -4.37773,20.3252 -39.39961,160.72541 -54.72168,166.35392 -15.32208,5.62852 -37.83614,-14.07129 -42.21388,-9.38086 -4.37773,4.69043 19.38712,37.21075 18.76173,43.77735 -0.6254,6.5666 6.87929,5.00313 6.87929,5.00313 0,0 22.82676,-17.51094 28.14258,-34.0838 5.31582,-16.57285 63.47716,-179.48713 63.47716,-179.48713 0,0 19.07442,-12.19511 17.19824,-16.88554 -1.87617,-4.69043 -24.39023,-29.70606 -37.52344,-28.14259 -13.1332,1.56348 -10.94434,10.00626 -13.4459,11.25704 -2.50156,1.25078 -37.83614,9.38086 -41.58848,9.38086 -3.75234,0 -14.69668,-9.06817 -18.44902,-4.06504 z"
 id="path41"
 inkscape:connector-curvature="0" />
<path
 style="fill:#000000;stroke:none;stroke-width:1px;stroke-linecap:butt;stroke-linejoin:miter;stroke-opacity:1;fill-opacity:1"
 d="m 324.57777,405.5534 c 0,0 -5.62852,9.38086 0.62539,11.25703 6.25391,1.87617 35.95997,-5.62852 39.08692,-9.69356 3.12695,-4.06503 9.06816,-17.19824 -4.69043,-13.75859 -13.7586,3.43965 -35.02188,12.19512 -35.02188,12.19512 z"
 id="path43"
 inkscape:connector-curvature="0" />
<path
 style="fill:#000000;stroke:none;stroke-width:1px;stroke-linecap:butt;stroke-linejoin:miter;stroke-opacity:1;fill-opacity:1"
 d="m 160.41271,455.89735 c 0,0 -3.43965,22.20137 13.7586,23.45215 17.19824,1.25078 37.10237,-13.21635 51.28203,-16.88555 14.33754,-3.71006 61.97565,-12.4252 85.05314,-14.07129 25.97984,-1.85311 107.5672,3.12695 130.08126,7.19199 22.51407,4.06504 40.02501,8.44278 45.65352,5.62852 5.62852,-2.81426 25.95372,-8.44277 0,-20.63789 -25.95371,-12.19512 -22.20137,-5.94121 -29.08066,-4.37774 -6.8793,1.56348 -156.66037,4.69043 -156.66037,4.69043 0,0 -53.7836,4.69043 -66.60411,7.81739 -12.82051,3.12695 -50.96934,10.94433 -50.96934,10.94433 0,0 -16.26016,-6.2539 -22.51407,-3.75234 z"
 id="path45"
 inkscape:connector-curvature="0"
 sodipodi:nodetypes="cssssssccscc" />
<path
 style="fill:#000000;stroke:none;stroke-width:1px;stroke-linecap:butt;stroke-linejoin:miter;stroke-opacity:1;fill-opacity:1"
 d="m 305.50335,469.34325 c 0,0 -0.62539,10.63164 4.37774,13.75859 5.00312,3.12696 18.76172,-2.18886 23.13945,-2.81425 4.37774,-0.62539 18.13633,-5.94122 22.20137,-4.69043 4.06504,1.25078 2.18887,-11.25704 -6.2539,-11.88243 -8.44278,-0.62539 -33.14571,-1.87617 -43.46466,5.62852 z"
 id="path47"
 inkscape:connector-curvature="0" />
</g>
</svg>
