<?xml version="1.0" encoding="UTF-8" standalone="no"?>
<!-- Created with Inkscape (http://www.inkscape.org/) -->

<svg
 xmlns:dc="http://purl.org/dc/elements/1.1/"
 xmlns:cc="http://creativecommons.org/ns#"
 xmlns:rdf="http://www.w3.org/1999/02/22-rdf-syntax-ns#"
 xmlns:svg="http://www.w3.org/2000/svg"
 xmlns="http://www.w3.org/2000/svg"
 xmlns:sodipodi="http://sodipodi.sourceforge.net/DTD/sodipodi-0.dtd"
 xmlns:inkscape="http://www.inkscape.org/namespaces/inkscape"
 width="512"
 height="512"
 viewBox="0 0 512 512"
 version="1.1"
 id="svg8"
 inkscape:version="0.92.4 (5da689c313, 2019-01-14)"
 sodipodi:docname="U+74B0.svg">
<defs
 id="defs2" />
<sodipodi:namedview
 id="base"
 pagecolor="#ffffff"
 bordercolor="#666666"
 borderopacity="1.0"
 inkscape:pageopacity="0.0"
 inkscape:pageshadow="2"
 inkscape:zoom="0.79950025"
 inkscape:cx="-90.972039"
 inkscape:cy="167.30626"
 inkscape:document-units="px"
 inkscape:current-layer="layer1"
 showgrid="false"
 units="px"
 inkscape:window-width="1920"
 inkscape:window-height="1017"
 inkscape:window-x="-8"
 inkscape:window-y="-8"
 inkscape:window-maximized="1">
<inkscape:grid
 type="xygrid"
 id="grid21" />
</sodipodi:namedview>
<metadata
 id="metadata5">
<rdf:RDF>
<cc:Work
 rdf:about="">
<dc:format>image/svg+xml</dc:format>
<dc:type
 rdf:resource="http://purl.org/dc/dcmitype/StillImage" />
<dc:title />
</cc:Work>
</rdf:RDF>
</metadata>
<g
 inkscape:label="圖層 1"
 inkscape:groupmode="layer"
 id="layer1"
 transform="translate(0,-161.53331)">
<path
 style="fill:#000000;stroke:none;stroke-width:1px;stroke-linecap:butt;stroke-linejoin:miter;stroke-opacity:1;fill-opacity:1"
 d="m 72.943747,280.6161 c -5.324255,4.91414 4.397645,24.50749 19.922033,20.56965 8.40214,3.53775 44.66402,-7.5177 51.29729,-11.49766 10.30902,-3.97997 28.38938,-10.17102 28.30195,-12.82433 -0.0874,-2.65186 -2.65331,-20.78424 -14.15098,-13.70875 -11.49766,7.07548 -40.92031,18.64947 -47.05828,17.84046 -13.951069,3.28502 -30.418737,-8.02235 -38.312013,-0.37937 z"
 id="path25"
 inkscape:connector-curvature="0"
 sodipodi:nodetypes="cccsscc" />
<path
 style="fill:#000000;stroke:none;stroke-width:1px;stroke-linecap:butt;stroke-linejoin:miter;stroke-opacity:1;fill-opacity:1"
 d="m 68.986008,418.37352 c 0,0 -6.191052,7.51771 -4.42218,10.61324 1.768872,3.09552 10.171014,14.15097 20.784246,6.63327 10.613232,-7.51771 61.910516,-36.26188 62.352736,-38.47297 0.44222,-2.21109 -7.5177,-11.49767 -19.89981,-7.07549 -12.3821,4.42218 -58.814992,28.30195 -58.814992,28.30195 z"
 id="path27"
 inkscape:connector-curvature="0" />
<path
 style="fill:#000000;stroke:none;stroke-width:1px;stroke-linecap:butt;stroke-linejoin:miter;stroke-opacity:1;fill-opacity:1"
 d="m 38.472966,523.17919 c 0,0 22.553118,34.05079 48.64398,26.53308 26.090864,-7.51771 104.363444,-120.72551 104.363444,-120.72551 0,0 7.07549,-13.26654 -5.30661,-1.76888 -12.38211,11.49767 -118.514426,89.32804 -122.936606,91.98135 -4.42218,2.65331 -12.824322,5.74883 -15.47763,5.74883 -2.653308,0 -13.26654,-6.19105 -9.286578,-1.76887 z"
 id="path31"
 inkscape:connector-curvature="0" />
<path
 style="fill:#000000;stroke:none;stroke-width:1px;stroke-linecap:butt;stroke-linejoin:miter;stroke-opacity:1;fill-opacity:1"
 d="m 99.941268,289.24587 c 0,0 -7.517706,9.72879 -0.442218,15.03541 7.07549,5.30662 19.89981,7.51771 20.78425,16.36207 0.88443,8.84436 -6.19106,58.81499 -7.07549,61.02608 -0.88444,2.21109 -22.110902,104.80567 -22.995338,110.11228 -0.884436,5.30662 -4.864398,15.91985 -0.442218,21.22647 4.42218,5.30661 16.804286,27.85973 19.015376,9.28657 2.21109,-18.57315 31.2179,-192.41347 30.07082,-199.88253 -1.48028,-22.48252 -10.04718,-21.63707 -25.64864,-32.28192 -2.45081,-4.52769 -11.38633,-2.41364 -13.266542,-0.88443 z"
 id="path33"
 inkscape:connector-curvature="0"
 sodipodi:nodetypes="csccsssccc" />
<path
 style="fill:#000000;stroke:none;stroke-width:1px;stroke-linecap:butt;stroke-linejoin:miter;stroke-opacity:1;fill-opacity:1"
 d="m 205.63137,256.52174 c 0,0 -3.09553,21.22646 2.65331,27.85973 5.74883,6.63327 28.74417,22.99534 33.60857,34.493 4.86439,11.49767 11.93988,17.24651 13.26654,14.15098 1.32665,-3.09553 6.19105,-28.30195 -2.21109,-36.26188 -8.40215,-7.95992 -18.34789,-8.2895 -29.18639,-18.13093 -5.27904,-4.7934 -8.40214,-17.68872 -8.84436,-23.43756 -0.44222,-5.74883 -9.28658,-4.42218 -9.28658,1.32666 z"
 id="path35"
 inkscape:connector-curvature="0"
 sodipodi:nodetypes="cscccssc" />
<path
 style="fill:#000000;stroke:none;stroke-width:1px;stroke-linecap:butt;stroke-linejoin:miter;stroke-opacity:1;fill-opacity:1"
 d="m 242.99879,246.12961 c -0.46328,0 -2.49915,10.39213 4.64329,13.92987 7.08873,3.51114 23.87977,17.68872 37.58853,15.47763 13.70876,-2.21109 75.61928,-28.74417 95.51909,-23.43755 19.89981,5.30661 19.89981,18.13093 11.05545,33.60856 -8.84436,15.47763 -16.36207,15.91985 -22.99534,11.49767 -6.63327,-4.42218 -3.09552,20.78425 6.19105,23.43756 9.28658,2.6533 36.26188,-27.85974 36.26188,-27.85974 0,0 20.78425,-19.45759 26.09086,-19.45759 5.30662,0 7.51771,-15.47763 1.32666,-19.89981 -6.19106,-4.42218 -19.89981,-8.84436 -20.78425,-11.05545 -0.88444,-2.21109 -3.97996,-12.3821 -12.3821,-10.17101 -8.40215,2.21109 -116.30334,26.53308 -126.47435,24.32199 -10.17102,-2.21109 -40.02073,-21.44758 -36.04077,-10.39213 z"
 id="path37"
 inkscape:connector-curvature="0"
 sodipodi:nodetypes="csssssccsssssc" />
<path
 style="fill:#000000;stroke:none;stroke-width:1px;stroke-linecap:butt;stroke-linejoin:miter;stroke-opacity:1;fill-opacity:1"
 d="m 277.27069,266.69275 c 0,0 -3.09553,9.28658 0.88443,13.70876 3.97996,4.42218 0,24.32199 -4.8644,28.74417 -4.86439,4.42218 -6.63327,14.15097 0,9.72879 6.63327,-4.42218 25.64865,-22.55311 25.64865,-32.72413 0,-10.17101 -5.74884,-21.66868 -10.17102,-22.1109 -4.42218,-0.44222 -9.72879,-0.88443 -11.49766,2.65331 z"
 id="path39"
 inkscape:connector-curvature="0" />
<path
 style="fill:#000000;stroke:none;stroke-width:1px;stroke-linecap:butt;stroke-linejoin:miter;stroke-opacity:1;fill-opacity:1"
 d="m 319.2814,277.30598 c 0,0 -3.09553,11.49767 4.42218,17.2465 7.5177,5.74884 19.01537,20.34203 23.43755,14.15098 4.42218,-6.19105 -1.76887,-21.66868 -9.28658,-22.99534 -7.5177,-1.32665 -15.47763,-16.80428 -18.57315,-8.40214 z"
 id="path41"
 inkscape:connector-curvature="0" />
<path
 style="fill:#000000;stroke:none;stroke-width:1px;stroke-linecap:butt;stroke-linejoin:miter;stroke-opacity:1;fill-opacity:1"
 d="m 210.05355,340.10094 c 0,0 1.15618,14.87585 11.49767,22.99533 7.67037,6.02229 2.67318,3.49403 12.82432,-2.6533 12.60485,-7.63325 -1.11879,-1.45448 25.64864,-10.61324 39.18102,-13.40621 110.11229,-23.43755 120.72552,-19.01537 10.61323,4.42218 14.18059,2.00662 11.49767,-3.53774 -2.59574,-5.36419 -17.07461,-17.86062 -32.72414,-13.26654 -14.9235,4.38094 -118.95664,33.16635 -124.26325,31.83969 -5.30662,-1.32665 -30.51305,-15.03541 -25.20643,-5.74883 z"
 id="path43"
 inkscape:connector-curvature="0"
 sodipodi:nodetypes="csssssscc" />
<path
 style="fill:#000000;stroke:none;stroke-width:1px;stroke-linecap:butt;stroke-linejoin:miter;stroke-opacity:1;fill-opacity:1"
 d="m 188.38487,383.88052 c 0,0 9.72879,23.87977 27.41751,22.55312 17.68872,-1.32666 68.54379,-21.22647 112.76559,-27.85974 44.2218,-6.63327 52.62395,-7.5177 51.73951,-11.05545 -0.88444,-3.53774 -11.93989,-16.36206 -20.34203,-15.03541 -8.40214,1.32666 -46.43289,15.91985 -57.04612,17.68872 -10.61323,1.76887 -75.61928,20.34203 -80.92589,20.34203 -5.30662,0 -38.03075,-14.15098 -33.60857,-6.63327 z"
 id="path45"
 inkscape:connector-curvature="0" />
<path
 style="fill:#000000;stroke:none;stroke-width:1px;stroke-linecap:butt;stroke-linejoin:miter;stroke-opacity:1;fill-opacity:1"
 d="m 264.88858,358.23188 c 0,0 27.41752,11.49766 12.38211,36.70409 -15.03542,25.20643 -32.72414,50.41285 -42.89515,53.9506 -10.17101,3.53774 -20.78425,3.09552 -26.53308,-0.44222 -5.74883,-3.53775 -11.49767,0 -6.63327,11.49767 4.8644,11.49766 18.13094,17.68872 23.43755,17.2465 5.30662,-0.44222 -1.76887,-7.51771 11.93989,-12.82432 13.70876,-5.30662 75.61928,-24.32199 79.15702,-23.43756 3.53775,0.88444 6.63327,-8.40214 3.53775,-8.40214 -3.09553,0 -69.42823,14.59319 -69.42823,14.59319 0,0 0.44222,-3.97996 4.8644,-7.5177 4.42218,-3.53775 38.91518,-32.72413 44.66402,-38.03075 5.74883,-5.30662 11.49766,-26.9753 1.32665,-33.60857 -10.17101,-6.63327 -38.91518,-19.01537 -35.81966,-9.72879 z"
 id="path47"
 inkscape:connector-curvature="0" />
<path
 style="fill:#000000;stroke:none;stroke-width:1px;stroke-linecap:butt;stroke-linejoin:miter;stroke-opacity:1;fill-opacity:1"
 d="m 342.27673,386.53383 c 0,0 -11.49767,37.14631 -18.13094,43.77958 -6.63327,6.63327 -72.30264,78.49369 -77.16704,81.58922 -4.8644,3.09552 -38.69407,33.38746 -42.23182,34.71411 -3.53774,1.32666 -6.19105,12.38211 -1.32665,9.7288 4.8644,-2.65331 56.6039,-38.91518 56.6039,-38.91518 0,0 36.7041,-32.72414 41.5685,-40.24184 4.86439,-7.51771 50.41285,-57.48834 52.62394,-59.69943 2.21109,-2.21109 4.42218,-2.21109 15.47763,-7.07549 11.05545,-4.8644 4.42218,-8.40214 -0.88444,-13.70876 -5.30661,-5.30661 -19.45759,-16.80428 -26.53308,-10.17101 z"
 id="path49"
 inkscape:connector-curvature="0"
 sodipodi:nodetypes="csccsccsssc" />
<path
 style="fill:#000000;stroke:none;stroke-width:1px;stroke-linecap:butt;stroke-linejoin:miter;stroke-opacity:1;fill-opacity:1"
 d="m 383.84522,404.22255 c 0,0 13.26654,10.17101 5.74884,22.99533 -7.51771,12.82433 -22.99534,38.03075 -31.39748,42.45293 -8.40214,4.42218 -11.49767,12.82432 -34.05079,10.61323 -22.55311,-2.21109 -31.39747,-6.63327 -32.72413,-3.97996 -1.32665,2.65331 -3.53774,4.8644 12.82432,11.05545 16.36207,6.19105 101.26793,46.43289 107.01676,51.73951 5.74883,5.30661 29.62861,31.83969 40.68406,30.51304 11.05545,-1.32665 9.28657,-21.22646 -7.51771,-34.05079 -16.80428,-12.82432 -77.83037,-39.3574 -88.4436,-42.45292 -10.61323,-3.09553 -4.42218,-4.8644 1.76887,-8.84436 6.19105,-3.97997 38.91519,-34.49301 48.64398,-36.7041 9.7288,-2.21109 18.13094,0 18.13094,-6.63327 0,-6.63327 -8.40214,-19.45759 -14.59319,-24.76421 -6.19106,-5.30661 -24.32199,-20.78424 -26.09087,-11.93988 z"
 id="path51"
 inkscape:connector-curvature="0" />
<path
 style="fill:#000000;stroke:none;stroke-width:1px;stroke-linecap:butt;stroke-linejoin:miter;stroke-opacity:1;fill-opacity:1"
 d="m 305.57264,462.59532 c 0,0 8.40214,27.41752 6.63327,43.77959 -1.76887,16.36206 -14.15098,87.11694 -14.15098,95.07687 0,7.95992 -4.42218,30.07082 4.42218,29.6286 8.84436,-0.44222 11.93989,6.19105 14.15098,-41.56849 2.21109,-47.75954 7.5177,-99.05683 6.63327,-107.01676 -0.88444,-7.95992 -3.09553,-21.66868 -6.63327,-24.32199 -3.53775,-2.6533 -11.49767,-3.53774 -11.05545,4.42218 z"
 id="path53"
 inkscape:connector-curvature="0" />
</g>
</svg>
