<?xml version="1.0" encoding="UTF-8" standalone="no"?>
<!-- Created with Inkscape (http://www.inkscape.org/) -->

<svg
 xmlns:dc="http://purl.org/dc/elements/1.1/"
 xmlns:cc="http://creativecommons.org/ns#"
 xmlns:rdf="http://www.w3.org/1999/02/22-rdf-syntax-ns#"
 xmlns:svg="http://www.w3.org/2000/svg"
 xmlns="http://www.w3.org/2000/svg"
 xmlns:sodipodi="http://sodipodi.sourceforge.net/DTD/sodipodi-0.dtd"
 xmlns:inkscape="http://www.inkscape.org/namespaces/inkscape"
 width="542"
 height="542"
 viewBox="0 0 542 542"
 version="1.1"
 id="svg8"
 inkscape:version="0.92.4 (5da689c313, 2019-01-14)"
 sodipodi:docname="U+7401.svg">
<defs
 id="defs2" />
<sodipodi:namedview
 id="base"
 pagecolor="#ffffff"
 bordercolor="#666666"
 borderopacity="1.0"
 inkscape:pageopacity="0.0"
 inkscape:pageshadow="2"
 inkscape:zoom="1.1306641"
 inkscape:cx="49.283935"
 inkscape:cy="237.05017"
 inkscape:document-units="px"
 inkscape:current-layer="layer1"
 showgrid="false"
 units="px"
 inkscape:window-width="1920"
 inkscape:window-height="1017"
 inkscape:window-x="-8"
 inkscape:window-y="-8"
 inkscape:window-maximized="1">
<inkscape:grid
 type="xygrid"
 id="grid21" />
</sodipodi:namedview>
<metadata
 id="metadata5">
<rdf:RDF>
<cc:Work
 rdf:about="">
<dc:format>image/svg+xml</dc:format>
<dc:type
 rdf:resource="http://purl.org/dc/dcmitype/StillImage" />
<dc:title />
</cc:Work>
</rdf:RDF>
</metadata>
<g
 inkscape:label="圖層 1"
 inkscape:groupmode="layer"
 id="layer1"
 transform="translate(0,-131.53332)">
<path
 style="fill:#000000;stroke:none;stroke-width:1px;stroke-linecap:butt;stroke-linejoin:miter;stroke-opacity:1;fill-opacity:1"
 d="m 123.08356,277.45887 c -0.6154,-0.0761 5.42895,19.90195 15.75317,27.71933 0.53921,0.40829 1.08525,0.83717 1.67124,1.23783 10.20324,6.97609 29.12925,9.70651 29.12925,9.70651 0,0 6.07463,-1.25278 8.59913,-5.62852 2.43146,-4.21447 -1.74076,-10.81433 -11.71496,-17.93418 -7.70678,-5.81091 -21.12559,-12.34053 -43.43783,-15.10097 z"
 id="path25"
 inkscape:connector-curvature="0"
 sodipodi:nodetypes="ssscscs" />
<path
 style="fill:#000000;stroke:none;stroke-width:1px;stroke-linecap:butt;stroke-linejoin:miter;stroke-opacity:1;fill-opacity:1"
 d="m 12.351466,385.22822 c 0,0 18.136331,11.56971 30.487797,13.28954 12.351466,1.71983 -2.188868,-4.22138 27.360843,-15.16572 29.54971,-10.94434 73.952444,-20.79424 73.952444,-20.79424 0,0 45.18259,-6.89502 49.40397,-5.95694 1.83106,-1.8425 27.85884,-3.42424 44.09195,0.64111 7.61078,1.90601 19.85614,-3.75234 22.20136,-7.81738 2.34521,-4.06504 -5.11366,-13.86914 -5.11366,-13.86914 0,0 -4.57989,-1.45293 -19.27657,1.04863 -14.69668,2.50156 -112.72668,23.9212 -112.72668,23.9212 l -62.695414,14.07129 c -11.868295,4.02867 -36.01519,2.61461 -47.842387,4.69043 -3.6961108,0.64871 -1.13884,6.4963 0.156347,5.94122 z"
 id="path27"
 inkscape:connector-curvature="0"
 sodipodi:nodetypes="cssccsccsccsc" />
<path
 style="fill:#000000;stroke:none;stroke-width:1px;stroke-linecap:butt;stroke-linejoin:miter;stroke-opacity:1;fill-opacity:1"
 d="m 141.65099,375.22196 c -2.38074,4.85562 -4.52149,8.02227 -3.67897,10.42744 1.86055,3.20189 8.96245,3.0296 13.48765,5.19606 3.1424,1.50444 6.87913,1.38057 4.53273,10.61324 -2.32644,9.15415 -27.31814,39.32329 -27.19641,39.02573 -16.03896,17.38207 -26.89618,28.54604 -39.025736,41.23683 -8.080125,9.42434 -17.179081,17.82984 -26.422525,26.09086 -14.230281,11.53581 -24.400472,20.34053 -36.261876,30.6236 0,0 -0.884436,4.75384 5.527725,3.20608 6.412161,-1.54776 21.668682,-7.73881 25.095871,-9.17602 C 61.136639,531.02857 98.50406,497.42 98.50406,497.42 l 40.02073,-40.46295 c 0.30839,0.77096 19.54841,-26.32954 25.98031,-39.3574 5.73589,-11.61807 6.20309,-13.70876 6.3016,-18.90482 0.0988,-5.21391 1.10555,-13.04543 -7.62826,-20.45258 -2.83663,-2.40575 -4.26049,-3.33707 -7.3411,-4.66467 -2.97361,-1.28149 -11.35385,-4.13261 -14.18635,1.64438 z"
 id="path29"
 inkscape:connector-curvature="0"
 sodipodi:nodetypes="scssccccssccsssss" />
<path
 style="fill:#000000;stroke:none;stroke-width:1px;stroke-linecap:butt;stroke-linejoin:miter;stroke-opacity:1;fill-opacity:1"
 d="m 160.41271,388.66786 c 0.14467,0.0289 -3.2981,1.59178 -5.00312,6.09756 -1.71535,4.53308 17.35459,9.8499 17.35459,9.8499 0,0 11.72607,3.12695 12.50781,3.12695 0.78174,0 11.72608,-0.31269 15.63477,-1.09443 3.90869,-0.78174 12.35147,1.87617 13.4459,6.2539 1.09443,4.37774 1.71982,0.46905 -0.78174,11.41339 -2.50156,10.94434 -33.1457,54.87803 -33.1457,54.87803 l -23.29581,33.30206 c -0.85667,0.0952 -6.43934,9.99211 -17.51094,13.75859 -13.58212,4.62055 -17.51094,-22.04502 -17.51094,-22.04502 0,0 -1.40713,-2.18887 -2.65791,-2.03252 -1.25078,0.15635 -9.06816,48.46778 -7.97373,52.68917 1.09443,4.22138 5.00313,12.50781 9.53721,17.19824 4.53408,4.69043 21.10694,-2.03252 37.21075,-27.51719 16.10381,-25.48467 48.15508,-78.64288 48.15508,-78.64288 l 18.44902,-35.64727 c 1.2493,-1.2493 6.56809,-3.28478 6.72295,-4.37773 1.40713,-2.34522 5.62852,-8.91182 4.84678,-13.7586 -0.78174,-4.84678 -5.94121,-11.72608 -16.10381,-18.29268 -10.1626,-6.5666 -14.22764,-0.62539 -20.3252,0.46905 -2.78955,3.45729 -26.7316,-0.55564 -29.23701,-2.34522 z"
 id="path31"
 inkscape:connector-curvature="0"
 sodipodi:nodetypes="cscssssccscsssscccssccc" />
<path
 style="fill:#000000;stroke:none;stroke-width:1px;stroke-linecap:butt;stroke-linejoin:miter;stroke-opacity:1;fill-opacity:1"
 d="m 321.29447,307.36707 c 6.34511,3.17255 8.16197,4.23734 10.94434,3.43965 3.91051,-1.12112 81.45713,-16.41651 81.45713,-16.41651 0,0 8.28643,-1.40713 12.03877,0.78174 3.75235,2.18887 5.7236,4.28478 1.71983,7.03565 -3.96973,2.72748 -2.34522,4.53408 -5.94121,5.94121 -3.596,1.40713 -2.18887,-3.90869 -12.19512,-1.09444 -10.00625,2.81426 -26.57911,6.56661 -38.30518,12.03877 -11.72608,5.47217 -22.04502,15.16573 -23.76485,19.85616 -1.71982,4.69043 -9.69355,-2.97061 -13.4459,-8.13008 -3.75234,-5.15947 -12.19512,-18.13633 -12.19512,-18.13633 0,0 -2.34521,-5.94121 -0.31269,-5.31582 z"
 id="path35"
 inkscape:connector-curvature="0"
 sodipodi:nodetypes="csccsssscccc" />
<path
 style="fill:#000000;stroke:none;stroke-width:1px;stroke-linecap:butt;stroke-linejoin:miter;stroke-opacity:1;fill-opacity:1"
 d="m 289.55589,215.59098 c 0,0 -4.06504,3.75235 -0.93808,8.44278 3.12695,4.69043 26.22536,28.18514 30.48779,34.55283 3.80301,5.68136 -13.33813,50.75912 -15.00938,51.59474 -2.01589,4.48501 -13.85816,20.9764 -15.63476,22.67041 -2.93517,2.79873 -6.06864,7.56645 -4.37774,8.13008 0,0 0.46905,5.94121 7.34834,0.62539 6.8793,-5.31582 26.11006,-30.64414 26.11006,-30.64414 0,0 17.19825,-30.01876 22.04503,-44.40274 4.84677,-14.38399 -36.11632,-47.5297 -39.55596,-49.56222 -3.43965,-2.03252 -8.44278,-2.18886 -10.4753,-1.40713 z"
 id="path39"
 inkscape:connector-curvature="0"
 sodipodi:nodetypes="ccscscscscc" />
<path
 style="fill:#000000;stroke:none;stroke-width:1px;stroke-linecap:butt;stroke-linejoin:miter;stroke-opacity:1;fill-opacity:1"
 d="m 252.28537,400.68481 c -14.60475,-4.994 6.20782,15.25652 8.18103,17.46761 1.98066,2.21944 11.27656,12.82433 17.68872,14.5932 6.41216,1.76887 23.65867,-15.91985 30.51304,-19.45759 6.85438,-3.53775 58.15167,-23.65867 58.15167,-23.65867 0,0 3.97996,1.54777 2.87442,4.64329 -1.10555,3.09553 -23.21645,31.61859 -24.10088,32.72413 -0.88444,1.10555 0.22111,3.97997 6.85438,2.21109 6.63327,-1.76887 50.41285,-35.15633 50.41285,-35.15633 0,0 4.64329,-4.64329 2.65331,-8.62325 -1.98998,-3.97996 -26.09087,-21.22646 -31.8397,-21.22646 -5.74883,0 -2.4322,9.9499 -3.53774,11.27656 -1.10555,1.32665 -35.17591,14.05202 -52.18172,17.46761 -16.02828,3.21926 -44.98707,14.81099 -65.66938,7.73881 z"
 id="path41"
 inkscape:connector-curvature="0"
 sodipodi:nodetypes="sssscccccsscss" />
<path
 style="fill:#000000;stroke:none;stroke-width:1px;stroke-linecap:butt;stroke-linejoin:miter;stroke-opacity:1;fill-opacity:1"
 d="m 307.78373,435.17782 c 0,0 24.98532,4.64329 31.17637,9.28658 6.19105,4.64328 8.18103,15.69873 3.75885,40.90516 -4.42218,25.20643 -10.61323,65.00605 -13.04543,68.7649 -2.4322,3.75885 -12.60321,-10.83434 -11.49767,-15.47763 1.10555,-4.64329 4.20107,-12.161 6.63327,-28.30195 2.4322,-16.14096 0.88444,-44.2218 0.88444,-44.2218 0.47734,0.55689 -3.90096,-13.39548 -13.48765,-22.55312 -6.57279,-6.27862 -5.30662,-6.85438 -4.42218,-8.40214 z"
 id="path43"
 inkscape:connector-curvature="0"
 sodipodi:nodetypes="ccsscscsc" />
<path
 style="fill:#000000;stroke:none;stroke-width:1px;stroke-linecap:butt;stroke-linejoin:miter;stroke-opacity:1;fill-opacity:1"
 d="m 269.97409,460.82646 c -1.32471,1.51396 0.88506,8.93288 -1.76887,18.57316 -2.62122,9.52145 -23.41768,33.13712 -28.74417,38.69407 -5.47378,5.71061 -26.75419,22.99534 -34.2719,26.75419 -7.5177,3.75885 -17.90983,7.29659 -19.23648,4.64329 -1.32666,-2.65331 -19.6787,-1.76887 -13.92986,4.20107 5.74883,5.96994 12.60321,8.62324 13.70875,8.18103 1.10555,-0.44222 16.94425,-0.34931 37.14631,-13.04543 27.66989,-17.38931 58.27085,-51.71936 60.80498,-55.94057 4.30793,-7.17592 4.64329,-17.0254 2.21109,-21.44758 -2.4322,-4.42218 -5.52773,-10.39212 -9.94991,-11.49766 -4.42218,-1.10555 -4.42218,-0.88444 -5.96994,0.88443 z"
 id="path45"
 inkscape:connector-curvature="0"
 sodipodi:nodetypes="sssscsssssss" />
<path
 style="fill:#000000;stroke:none;stroke-width:1px;stroke-linecap:butt;stroke-linejoin:miter;stroke-opacity:1;fill-opacity:1"
 d="m 237.02885,486.91732 41.56849,27.41752 c 0,0 94.19243,49.0862 107.23787,51.96061 13.04543,2.87442 128.90654,13.04544 130.89652,13.70876 1.98998,0.66333 4.8644,-0.22111 8.18104,3.75886 3.31663,3.97996 -77.83037,12.3821 -85.12697,21.88979 -7.2966,9.50768 -9.9499,10.83434 -14.37208,12.16099 -4.42218,1.32666 -5.08551,-8.62325 -12.161,-14.59319 -7.07549,-5.96995 -102.37347,-57.48834 -110.33339,-60.36276 -7.95992,-2.87442 -67.21714,-46.43289 -67.21714,-46.43289 0,0 -4.86439,-7.51771 1.32666,-9.50769 z"
 id="path47"
 inkscape:connector-curvature="0" />
<path
 style="fill:#000000;stroke:none;stroke-width:1px;stroke-linecap:butt;stroke-linejoin:miter;stroke-opacity:1;fill-opacity:1"
 d="m 375.85981,437.76103 c 0,0 23.76484,9.06816 30.01875,17.51094 6.25391,8.44277 1.3676,19.81029 -5.31582,22.82676 -7.48783,3.37952 -10.00625,-8.13008 -16.88555,-15.32207 -6.8793,-7.192 -13.4459,-19.69981 -7.81738,-25.01563 z"
 id="path49"
 inkscape:connector-curvature="0"
 sodipodi:nodetypes="csssc" />
</g>
</svg>
