<?xml version="1.0" encoding="UTF-8" standalone="no"?>
<!-- Created with Inkscape (http://www.inkscape.org/) -->

<svg
 xmlns:dc="http://purl.org/dc/elements/1.1/"
 xmlns:cc="http://creativecommons.org/ns#"
 xmlns:rdf="http://www.w3.org/1999/02/22-rdf-syntax-ns#"
 xmlns:svg="http://www.w3.org/2000/svg"
 xmlns="http://www.w3.org/2000/svg"
 xmlns:sodipodi="http://sodipodi.sourceforge.net/DTD/sodipodi-0.dtd"
 xmlns:inkscape="http://www.inkscape.org/namespaces/inkscape"
 width="512"
 height="512"
 viewBox="0 0 512 512"
 version="1.1"
 id="svg8"
 inkscape:version="0.92.4 (5da689c313, 2019-01-14)"
 sodipodi:docname="U+74A3.svg">
<defs
 id="defs2" />
<sodipodi:namedview
 id="base"
 pagecolor="#ffffff"
 bordercolor="#666666"
 borderopacity="1.0"
 inkscape:pageopacity="0.0"
 inkscape:pageshadow="2"
 inkscape:zoom="1.1306641"
 inkscape:cx="99.409695"
 inkscape:cy="218.49507"
 inkscape:document-units="px"
 inkscape:current-layer="layer1"
 showgrid="false"
 units="px"
 inkscape:window-width="1920"
 inkscape:window-height="1017"
 inkscape:window-x="-8"
 inkscape:window-y="-8"
 inkscape:window-maximized="1">
<inkscape:grid
 type="xygrid"
 id="grid21" />
</sodipodi:namedview>
<metadata
 id="metadata5">
<rdf:RDF>
<cc:Work
 rdf:about="">
<dc:format>image/svg+xml</dc:format>
<dc:type
 rdf:resource="http://purl.org/dc/dcmitype/StillImage" />
<dc:title />
</cc:Work>
</rdf:RDF>
</metadata>
<g
 inkscape:label="圖層 1"
 inkscape:groupmode="layer"
 id="layer1"
 transform="translate(0,-161.53331)">
<path
 style="fill:#000000;stroke:none;stroke-width:1px;stroke-linecap:butt;stroke-linejoin:miter;stroke-opacity:1;fill-opacity:1"
 d="m 62.242183,272.99436 c 15.47763,12.16099 12.713768,11.05545 19.347038,14.15097 6.63327,3.09553 15.698739,4.53274 29.628609,1.87943 13.92986,-2.65331 21.46542,-9.13323 28.30195,-7.2966 7.16801,1.92568 9.56206,4.1177 12.82432,-6.19105 3.24901,-10.26689 -5.08551,-11.05545 -12.60321,-15.47763 -7.51771,-4.42218 -5.30661,4.09051 -8.40214,5.41717 -3.09553,1.32665 -31.880623,16.03747 -41.126278,14.26153 -10.421837,-2.00186 -28.174439,-6.82548 -27.970289,-6.74382 z"
 id="path27"
 inkscape:connector-curvature="0"
 sodipodi:nodetypes="ccsssscsc" />
<path
 style="fill:#000000;stroke:none;stroke-width:1px;stroke-linecap:butt;stroke-linejoin:miter;stroke-opacity:1;fill-opacity:1"
 d="m 122.49439,272.10992 -3.31664,20.12092 c -5.6131,25.15323 -6.91714,40.61297 -10.11086,56.37954 l -7.13564,45.88337 c 0,0 -7.517707,57.04612 -5.527726,64.56383 1.989981,7.51771 14.372086,6.63327 14.372086,6.63327 0,0 3.97996,-1.54776 6.19105,-7.2966 2.21109,-5.74883 -3.75885,-4.42218 -3.31663,-12.82432 -0.7711,-4.7622 7.7914,-85.50584 9.50768,-90.65469 l 12.161,-67.88046 c -0.38662,-0.14498 3.26546,-10.05201 3.31663,-12.38211 0.11671,-5.31454 -4.42218,-10.17101 -16.14095,-2.54275 z"
 id="path29"
 inkscape:connector-curvature="0"
 sodipodi:nodetypes="ccccscscccsc" />
<path
 style="fill:#000000;stroke:none;stroke-width:1px;stroke-linecap:butt;stroke-linejoin:miter;stroke-opacity:1;fill-opacity:1"
 d="m 109.96053,389.62015 c 0,0 -18.360411,4.48679 -35.225688,17.25571 -16.146801,12.22495 -19.978939,21.6114 -19.931237,21.6909 0,0 0.03143,6.83216 0.915863,9.04325 0.884436,2.21109 19.678701,18.35204 33.829677,24.7642 14.150975,6.41217 17.880635,2.55695 21.021075,-3.01965 2.65758,-4.71918 -2.11306,-7.74379 -6.28398,-12.42198 -5.870061,-6.58398 -14.268422,-13.34644 -13.276407,-20.90402 1.624785,-12.37828 24.273977,-15.44104 24.980797,-27.90548 0.19673,-3.46913 -6.0301,-8.50293 -6.0301,-8.50293 z"
 id="path31"
 inkscape:connector-curvature="0"
 sodipodi:nodetypes="cscsssssac" />
<path
 style="fill:#000000;stroke:none;stroke-width:1px;stroke-linecap:butt;stroke-linejoin:miter;stroke-opacity:1;fill-opacity:1"
 d="m 33.145707,508.74286 c 0,0 7.817383,5.62852 18.449025,5.62852 10.631642,0 74.108798,-60.97559 82.238878,-74.73419 8.13008,-13.75859 -10.31895,27.20449 -10.31895,27.20449 0,0 -25.015626,48.46778 -47.216995,68.79298 -22.20137,20.3252 -43.151958,-26.8918 -43.151958,-26.8918 z"
 id="path35"
 inkscape:connector-curvature="0"
 sodipodi:nodetypes="csscsc" />
<path
 style="fill:#000000;stroke:none;stroke-width:1px;stroke-linecap:butt;stroke-linejoin:miter;stroke-opacity:1;fill-opacity:1"
 d="m 189,251.53331 c 0,0 1,2 6,7 5,5 14.00191,10.00064 12,16 -2.00195,5.99949 -13.55873,34.06004 -22,37 -11.48867,4.00132 -11.6092,1.42335 -15.55277,4.77388 -5.57126,4.73345 -12.11557,6.36673 -8.11557,13.36673 4,7 8.66834,13.85939 18.66834,14.85939 10,1 0.98876,-7.80007 17,-7 16.59668,0.82932 17.00074,7.00226 21,6 3.99942,-1.0023 7.46514,-3.43434 8,-7 0.1612,-1.07467 -36.09666,-9.15016 -39,-10 0,0 -1,-7 7,-14 8,-7 32,-24 37,-23 5,1 8,-6 7,-8 -1,-2 -10,-17 -20,-22 -10,-5 -29,-14 -29,-8 z"
 id="path37"
 inkscape:connector-curvature="0"
 sodipodi:nodetypes="cssssssssscssssc" />
<path
 style="fill:#000000;stroke:none;stroke-width:1px;stroke-linecap:butt;stroke-linejoin:miter;stroke-opacity:1;fill-opacity:1"
 d="m 260.4664,261.16503 c 0,0 -2.4322,21.00535 -7.29659,26.97529 -4.8644,5.96995 -54.39282,72.96597 -59.47833,76.50372 -5.0855,3.53774 -26.09086,7.5177 -27.85974,11.05545 -1.47559,8.23255 -4.77304,4.0127 13.92988,18.79426 3.62078,3.92461 7.51771,0.66333 7.51771,0.66333 0,0 1.97354,-1.69522 7.29659,-9.50769 9.36071,-13.73841 37.64768,-8.4258 38.47297,-9.28658 0.86562,-0.90285 7.29659,-3.97996 4.42218,-6.85438 -2.87442,-2.87441 -30.73415,-0.88443 -30.73415,-0.88443 0,0 62.13162,-68.7649 64.12161,-76.28261 1.98998,-7.5177 3.53774,-15.69874 1.98998,-21.44757 -1.54777,-5.74883 -8.84436,-13.70876 -12.38211,-9.72879 z"
 id="path39"
 inkscape:connector-curvature="0"
 sodipodi:nodetypes="csscccssccscc" />
<path
 style="fill:#000000;stroke:none;stroke-width:1px;stroke-linecap:butt;stroke-linejoin:miter;stroke-opacity:1;fill-opacity:1"
 d="m 245.43099,342.31203 c -0.66333,1.10554 3.53774,30.07082 7.95992,34.27189 4.42218,4.20107 12.82433,6.63327 15.25653,4.8644 2.43219,-1.76887 4.86439,-13.48765 4.20107,-15.69874 -0.66333,-2.21109 -22.33201,-30.51304 -27.41752,-23.43755 z"
 id="path41"
 inkscape:connector-curvature="0" />
<path
 style="fill:#000000;stroke:none;stroke-width:1px;stroke-linecap:butt;stroke-linejoin:miter;stroke-opacity:1;fill-opacity:1"
 d="m 360.84989,238.61191 c 0,0 7.2966,13.70876 5.08551,20.12092 -2.21109,6.41216 -20.12092,41.56849 -30.95526,44.88512 -9.74324,4.23913 -15.08437,18.30949 -12.60322,21.66868 -1.10554,1.32666 0.44222,10.61324 9.94991,9.94991 9.50768,-0.66333 21.22646,-0.22111 28.96528,-6.63327 7.73881,-6.41216 10.61323,-7.73882 8.84436,-9.06547 -1.76888,-1.32665 -26.53308,0.88444 -29.18639,-7.51771 -2.65331,-8.40214 37.14631,-27.1964 39.79962,-38.69407 2.65331,-11.49767 0.88443,-25.86975 -5.52773,-30.95526 -6.41216,-5.08551 -11.71877,-7.51771 -14.37208,-3.75885 z"
 id="path43"
 inkscape:connector-curvature="0"
 sodipodi:nodetypes="csccsscsssc" />
<path
 style="fill:#000000;stroke:none;stroke-width:1px;stroke-linecap:butt;stroke-linejoin:miter;stroke-opacity:1;fill-opacity:1"
 d="m 400.64951,260.5017 c -0.88444,13.04543 -14.15098,34.93522 -24.10088,45.32734 -9.94991,10.39213 -52.84505,51.96062 -58.59389,50.85507 -5.74883,-1.10554 -13.48765,12.82432 -7.73881,18.57316 5.74883,5.74883 10.17101,10.17101 19.01537,7.5177 8.84436,-2.6533 76.72482,-25.20642 44.88513,-21.66868 -31.8397,3.53775 -51.5184,16.58318 -26.09086,-11.49767 25.42753,-28.08084 59.25721,-51.96061 72.30264,-52.18172 13.04543,-0.22111 5.74883,-13.70876 -4.20107,-23.87977 -9.94991,-10.17102 -8.18103,-17.02539 -15.47763,-13.04543 z"
 id="path47"
 inkscape:connector-curvature="0" />
<path
 style="fill:#000000;stroke:none;stroke-width:1px;stroke-linecap:butt;stroke-linejoin:miter;stroke-opacity:1;fill-opacity:1"
 d="m 384.50855,339.2165 c 0,0 -0.44222,26.53308 3.97996,28.74417 4.42218,2.21109 8.62325,5.30662 12.161,5.08551 3.53774,-0.22111 7.73881,-11.27656 5.52772,-15.25652 -2.21109,-3.97996 -17.2465,-23.87977 -21.66868,-18.57316 z"
 id="path49"
 inkscape:connector-curvature="0" />
<path
 style="fill:#000000;stroke:none;stroke-width:1px;stroke-linecap:butt;stroke-linejoin:miter;stroke-opacity:1;fill-opacity:1"
 d="m 146.37416,421.46905 c 0,0 9.72879,21.88979 24.76421,26.09086 15.03541,4.20107 25.42753,-18.13094 43.55847,-24.10088 18.13094,-5.96994 103.92123,-21.00535 130.45431,-22.77423 26.53308,-1.76887 106.79565,-1.98998 122.49439,2.65331 15.69873,4.64329 7.73881,-3.53774 3.31663,-8.62325 -4.42218,-5.08551 -33.60857,-23.87977 -45.54845,-22.33201 -11.93989,1.54776 -7.73882,7.2966 -10.83434,9.94991 -3.09553,2.6533 -140.62533,21.66868 -151.68078,23.21644 -11.05545,1.54776 -65.44826,15.25652 -79.37813,16.80429 -13.92987,1.54776 -30.95526,-7.2966 -37.14631,-0.88444 z"
 id="path51"
 inkscape:connector-curvature="0" />
<path
 style="fill:#000000;stroke:none;stroke-width:0.98195142px;stroke-linecap:butt;stroke-linejoin:miter;stroke-opacity:1;fill-opacity:1"
 d="m 241.89325,410.44228 c 0,0 -7.51771,7.03559 -3.97997,10.02039 3.53775,2.98478 10.39213,0 13.70876,1.06599 3.31664,1.066 -44.44291,60.12229 -62.13163,61.82789 -17.68872,1.70559 -0.22111,11.29958 -0.22111,11.29958 0,0 14.81431,-0.4264 35.37744,-19.18797 20.56314,-18.76156 53.9506,-48.60951 58.37278,-57.35069 4.42218,-8.74119 9.94991,-18.33517 -41.12627,-7.67519 z"
 id="path53"
 inkscape:connector-curvature="0" />
<path
 style="fill:#000000;stroke:none;stroke-width:1px;stroke-linecap:butt;stroke-linejoin:miter;stroke-opacity:1;fill-opacity:1"
 d="m 273.29573,437.76102 c 0,0 13.7586,14.07129 15.00938,18.13633 1.25078,4.06504 -17.51094,36.58535 -33.7711,52.53282 -16.26016,15.94746 -30.64414,25.64102 -35.64727,24.70293 -5.00312,-0.93809 -8.44277,-3.43965 -14.07129,-11.25703 -5.62851,-7.81739 -9.06816,44.40274 -7.19199,46.5916 1.87617,2.18887 11.88242,6.25391 25.64102,-7.19199 13.75859,-13.4459 65.97872,-85.05313 69.41836,-87.5547 3.43965,-2.50156 14.69669,-7.19199 16.88555,-11.25703 2.18887,-4.06504 6.56661,-5.31582 -0.93808,-10.31895 -7.50469,-5.00312 -38.77423,-22.51406 -35.33458,-14.38398 z"
 id="path55"
 inkscape:connector-curvature="0" />
<path
 style="fill:#000000;stroke:none;stroke-width:1px;stroke-linecap:butt;stroke-linejoin:miter;stroke-opacity:1;fill-opacity:1"
 d="m 274.54651,260.15006 c 0,0 25.32833,106.31642 35.64727,132.58283 10.31895,26.26641 54.40899,99.43712 69.73107,116.94806 15.32207,17.51094 29.39336,20.0125 32.83301,19.69981 3.43965,-0.3127 9.06816,-3.12696 7.50469,-9.69356 -1.56348,-6.5666 -27.99109,-28.31969 -36.58536,-36.89805 -6.09693,-6.08564 -32.42609,-47.2092 -39.49389,-57.85403 -18.42398,-27.74839 -35.97782,-85.24883 -47.83319,-132.98441 -3.48083,-14.01555 -6.48152,-46.18463 -15.23699,-40.55612 -8.75547,5.62852 -6.56661,5.94121 -6.56661,8.75547 z"
 id="path57"
 inkscape:connector-curvature="0"
 sodipodi:nodetypes="cssccssssc" />
<path
 style="fill:#000000;stroke:none;stroke-width:1px;stroke-linecap:butt;stroke-linejoin:miter;stroke-opacity:1;fill-opacity:1"
 d="m 393.05805,419.62469 c 0,0 14.38399,20.0125 20.63789,22.51406 6.25391,2.50157 14.38399,2.18887 15.94747,-0.62539 1.56347,-2.81426 5.00312,-9.38086 0.93808,-13.75859 -4.06504,-4.37774 -25.01563,-12.50782 -30.95684,-11.25703 -5.94121,1.25078 -6.2539,3.75234 -6.5666,3.12695 z"
 id="path61"
 inkscape:connector-curvature="0" />
</g>
</svg>
