<?xml version="1.0" encoding="UTF-8" standalone="no"?>
<!-- Created with Inkscape (http://www.inkscape.org/) -->

<svg
 xmlns:dc="http://purl.org/dc/elements/1.1/"
 xmlns:cc="http://creativecommons.org/ns#"
 xmlns:rdf="http://www.w3.org/1999/02/22-rdf-syntax-ns#"
 xmlns:svg="http://www.w3.org/2000/svg"
 xmlns="http://www.w3.org/2000/svg"
 xmlns:sodipodi="http://sodipodi.sourceforge.net/DTD/sodipodi-0.dtd"
 xmlns:inkscape="http://www.inkscape.org/namespaces/inkscape"
 width="512"
 height="512"
 viewBox="0 0 512 512"
 version="1.1"
 id="svg8"
 inkscape:version="0.92.4 (5da689c313, 2019-01-14)"
 sodipodi:docname="U+795C.svg">
<defs
 id="defs2" />
<sodipodi:namedview
 id="base"
 pagecolor="#ffffff"
 bordercolor="#666666"
 borderopacity="1.0"
 inkscape:pageopacity="0.0"
 inkscape:pageshadow="2"
 inkscape:zoom="0.9899495"
 inkscape:cx="-108.0118"
 inkscape:cy="175.91092"
 inkscape:document-units="px"
 inkscape:current-layer="layer1"
 showgrid="false"
 units="px"
 inkscape:window-width="1920"
 inkscape:window-height="1017"
 inkscape:window-x="-8"
 inkscape:window-y="-8"
 inkscape:window-maximized="1">
<inkscape:grid
 type="xygrid"
 id="grid21" />
</sodipodi:namedview>
<metadata
 id="metadata5">
<rdf:RDF>
<cc:Work
 rdf:about="">
<dc:format>image/svg+xml</dc:format>
<dc:type
 rdf:resource="http://purl.org/dc/dcmitype/StillImage" />
<dc:title />
</cc:Work>
</rdf:RDF>
</metadata>
<g
 inkscape:label="圖層 1"
 inkscape:groupmode="layer"
 id="layer1"
 transform="translate(0,-161.53331)">
<path
 style="fill:#000000;stroke:none;stroke-width:1px;stroke-linecap:butt;stroke-linejoin:miter;stroke-opacity:1;fill-opacity:1"
 d="M 114.14724,272.50275 C 114.14724,272.50275 158.08887,313.41393 165.15994,315.43423 172.23101,317.45454 195.96959,315.43423 174.25131,295.23118 152.53303,275.02813 112.63201,261.89615 114.14724,272.50275 Z"
 id="path23"
 inkscape:connector-curvature="0" />
<path
 style="fill:#000000;stroke:none;stroke-width:1px;stroke-linecap:butt;stroke-linejoin:miter;stroke-opacity:1;fill-opacity:1"
 d="M 12.121831,410.89365 C 12.121831,410.89365 4.5456865,445.74391 29.294424,446.24899 54.043161,446.75406 36.365492,440.18807 46.467017,434.12716 56.568543,428.06624 132.32998,397.76166 132.32998,402.30735 132.32998,406.85304 66.164992,482.61448 60.104076,487.16017 54.043161,491.70585 32.324881,511.40383 31.819805,514.43428 31.314729,517.46474 46.972093,513.92921 52.527932,509.38352 58.083771,504.83783 157.07872,398.26674 161.62441,396.75151 166.17009,395.23628 169.70563,389.17537 177.78685,390.6906 185.86807,392.20583 190.41375,380.084 185.36299,373.518 180.31223,366.95201 163.64471,352.3048 161.11933,357.86064 158.59395,363.41648 160.10918,374.02308 140.91628,382.60938 121.72338,391.19567 44.951788,415.43933 39.901026,416.44949 34.850263,417.45964 13.637059,404.32766 12.121831,410.89365 Z"
 id="path25"
 inkscape:connector-curvature="0" />
<path
 style="fill:#000000;stroke:none;stroke-width:1px;stroke-linecap:butt;stroke-linejoin:miter;stroke-opacity:1;fill-opacity:1"
 d="M 115.15739,436.65254 C 115.15739,436.65254 116.67262,445.74391 119.198,448.26929 121.72338,450.79467 123.74369,519.48505 121.72338,528.57642 119.70308,537.66779 111.11678,556.86069 111.62186,561.40638 112.12693,565.95206 118.69292,578.07389 125.76399,582.61958 132.83506,587.16527 142.43151,586.66019 141.92643,554.84039 141.42136,523.02058 134.85536,449.78452 136.87567,444.22868 138.89598,438.67284 138.3909,423.01548 131.31983,425.54086 124.24876,428.06624 114.14724,427.56117 115.15739,436.65254 Z"
 id="path27"
 inkscape:connector-curvature="0" />
<path
 style="fill:#000000;stroke:none;stroke-width:1px;stroke-linecap:butt;stroke-linejoin:miter;stroke-opacity:1;fill-opacity:1"
 d="M 154.55334,444.73376 C 154.55334,444.73376 182.83761,479.07894 191.42391,480.0891 200.0102,481.09925 196.97975,455.84544 185.36299,449.27944 173.74624,442.71345 152.02796,435.64239 154.55334,444.73376 Z"
 id="path29"
 inkscape:connector-curvature="0" />
<path
 style="fill:#000000;stroke:none;stroke-width:1px;stroke-linecap:butt;stroke-linejoin:miter;stroke-opacity:1;fill-opacity:1"
 d="M 211.12188,374.52816 C 211.12188,374.52816 232.33509,411.9038 249.50768,410.38857 266.68027,408.87334 277.79195,390.6906 309.61176,384.12461 341.43156,377.55861 422.74884,362.40633 431.84021,363.41648 440.93159,364.42663 472.75139,371.4977 482.85292,372.00278 492.95444,372.50785 490.42906,357.86064 475.78185,352.3048 461.13464,346.74896 455.07372,337.65759 443.45697,343.7185 431.84021,349.77942 331.83511,367.96216 325.26912,367.96216 318.70313,367.96216 253.54829,383.11445 246.47722,382.60938 239.40615,382.1043 213.14219,367.96216 211.12188,374.52816 Z"
 id="path31"
 inkscape:connector-curvature="0" />
<path
 style="fill:#000000;stroke:none;stroke-width:1px;stroke-linecap:butt;stroke-linejoin:miter;stroke-opacity:1;fill-opacity:1"
 d="M 295.9747,282.60427 C 295.9747,282.60427 329.81481,330.08144 329.81481,335.13221 329.81481,340.18297 296.98485,449.78452 294.45947,453.32005 291.93409,456.85559 255.56859,522.5155 239.91123,540.69825 224.25387,558.881 192.93914,588.6805 193.44421,593.73126 193.94929,598.78202 223.24371,589.69065 227.28432,585.65004 231.32493,581.60943 282.84271,507.36322 288.39855,497.26169 293.95439,487.16017 344.46202,361.90125 348.50263,356.85049 352.54324,351.79972 368.70568,344.22358 351.02801,325.53576 333.35034,306.84794 297.48992,263.41138 295.9747,282.60427 Z"
 id="path33"
 inkscape:connector-curvature="0" />
<path
 style="fill:#000000;stroke:none;stroke-width:1px;stroke-linecap:butt;stroke-linejoin:miter;stroke-opacity:1;fill-opacity:1"
 d="M 239.91123,440.18807 C 239.91123,440.18807 271.22596,455.34036 274.76149,464.93681 278.29703,474.53326 295.46962,526.05104 296.98485,535.64749 298.50008,545.24394 300.01531,566.96222 304.56099,571.5079 309.10668,576.05359 326.27927,591.71095 318.19805,558.881 310.11683,526.05104 301.53053,484.12971 302.54069,474.02818 303.55084,463.92666 294.45947,453.32005 284.35794,449.78452 274.25642,446.24899 238.396,430.59162 239.91123,440.18807 Z"
 id="path37"
 inkscape:connector-curvature="0" />
<path
 style="fill:#000000;stroke:none;stroke-width:1px;stroke-linecap:butt;stroke-linejoin:miter;stroke-opacity:1;fill-opacity:1"
 d="M 306.07622,448.26929 C 306.07622,448.26929 322.23866,458.87589 332.34019,469.98757 342.44171,481.09925 367.69553,459.88605 383.85797,459.88605 400.02041,459.88605 400.02041,451.80483 395.9798,483.11956 391.93919,514.43428 400.02041,529.58657 381.83766,530.59672 363.65492,531.60688 313.65237,534.63733 311.12698,538.67795 308.6016,542.71856 299.51023,550.2947 310.62191,549.78962 321.73359,549.28455 395.47472,538.17287 413.15239,541.7084 430.83006,545.24394 404.06102,527.06119 406.08132,521.00028 408.10163,514.93936 416.18285,475.03833 424.76915,472.00788 433.35544,468.97742 458.60926,460.8962 430.32498,445.23883 402.04071,429.58147 410.12193,429.07639 397.49503,434.63223 384.86812,440.18807 363.14984,452.81498 353.04831,453.82513 342.94679,454.83528 300.01531,437.66269 306.07622,448.26929 Z"
 id="path39"
 inkscape:connector-curvature="0" />
</g>
</svg>
