<?xml version="1.0" encoding="UTF-8" standalone="no"?>
<!-- Created with Inkscape (http://www.inkscape.org/) -->

<svg
 xmlns:dc="http://purl.org/dc/elements/1.1/"
 xmlns:cc="http://creativecommons.org/ns#"
 xmlns:rdf="http://www.w3.org/1999/02/22-rdf-syntax-ns#"
 xmlns:svg="http://www.w3.org/2000/svg"
 xmlns="http://www.w3.org/2000/svg"
 xmlns:sodipodi="http://sodipodi.sourceforge.net/DTD/sodipodi-0.dtd"
 xmlns:inkscape="http://www.inkscape.org/namespaces/inkscape"
 width="545"
 height="545"
 viewBox="0 0 545 545"
 version="1.1"
 id="svg8"
 inkscape:version="0.92.4 (5da689c313, 2019-01-14)"
 sodipodi:docname="U+7D8F.svg">
<defs
 id="defs2" />
<sodipodi:namedview
 id="base"
 pagecolor="#ffffff"
 bordercolor="#666666"
 borderopacity="1.0"
 inkscape:pageopacity="0.0"
 inkscape:pageshadow="2"
 inkscape:zoom="0.98994949"
 inkscape:cx="394.47069"
 inkscape:cy="320.42627"
 inkscape:document-units="px"
 inkscape:current-layer="layer1"
 showgrid="false"
 units="px"
 inkscape:window-width="1920"
 inkscape:window-height="1017"
 inkscape:window-x="-8"
 inkscape:window-y="-8"
 inkscape:window-maximized="1">
<inkscape:grid
 type="xygrid"
 id="grid21" />
</sodipodi:namedview>
<metadata
 id="metadata5">
<rdf:RDF>
<cc:Work
 rdf:about="">
<dc:format>image/svg+xml</dc:format>
<dc:type
 rdf:resource="http://purl.org/dc/dcmitype/StillImage" />
<dc:title />
</cc:Work>
</rdf:RDF>
</metadata>
<g
 inkscape:label="圖層 1"
 inkscape:groupmode="layer"
 id="layer1"
 transform="translate(0,-152.80207)">
<path
 style="fill:#000000;stroke:none;stroke-width:1px;stroke-linecap:butt;stroke-linejoin:miter;stroke-opacity:1;fill-opacity:1"
 d="M 159.28571,271.3735 C 159.28571,271.3735 141.42857,289.94493 150.71429,297.08778 160,304.23064 168.57143,317.80207 160.71429,325.65921 152.85714,333.51636 107.14286,374.23064 101.42857,375.65921 95.714286,377.08778 80,367.08778 76.428572,374.23064 72.857143,381.3735 72.857143,411.3735 80.714286,412.80207 88.571429,414.23064 105.71429,406.3735 125,401.3735 144.28571,396.3735 162.14286,397.08778 159.28571,393.51636 156.42857,389.94493 104.28571,391.3735 105.71429,385.65921 107.14286,379.94493 164.28571,334.94493 170.71429,329.23064 177.14286,323.51636 176.5256,311.46011 173.57143,299.94493 170.84757,289.32748 164.32506,266.36694 159.28571,271.3735 Z"
 id="path23"
 inkscape:connector-curvature="0"
 sodipodi:nodetypes="ccsssssccssc" />
<path
 style="fill:#000000;stroke:none;stroke-width:1px;stroke-linecap:butt;stroke-linejoin:miter;stroke-opacity:1;fill-opacity:1"
 d="M 187.14286,357.80207 C 187.14286,357.80207 175.71429,362.80207 159.28571,382.08778 142.85714,401.3735 111.42857,444.23064 106.42857,447.08778 101.42857,449.94493 82.142857,455.65921 82.857143,464.23064 83.571429,472.80207 80.714286,487.80207 103.57143,475.65921 126.42857,463.51636 150.71429,444.94493 156.42857,444.94493 162.14286,444.94493 169.28571,444.23064 166.42857,448.51636 163.57143,452.80207 132.85714,477.08778 135.71429,481.3735 138.57143,485.65921 182.85714,451.3735 190,448.51636 197.14286,445.65921 204.28571,434.23064 200,429.23064 195.71429,424.23064 191.42857,416.3735 186.42857,420.65921 181.42857,424.94493 158.10968,440.82509 154.53825,440.82509 150.96683,440.82509 116.42857,455.65921 121.42857,445.65921 126.42857,435.65921 143.57143,412.80207 156.42857,404.94493 169.28571,397.08778 190.71429,383.51636 198.57143,382.80207 206.42857,382.08778 205,373.51636 202.14286,367.08778 199.28571,360.65921 194.28571,355.65921 187.14286,357.80207 Z"
 id="path25"
 inkscape:connector-curvature="0"
 sodipodi:nodetypes="cscssscscscsssscc" />
<path
 style="fill:#000000;stroke:none;stroke-width:1px;stroke-linecap:butt;stroke-linejoin:miter;stroke-opacity:1;fill-opacity:1"
 d="M 25.714286,529.94493 C 25.714286,529.94493 14.285714,552.08778 25.714286,562.80207 37.142857,573.51636 65,542.08778 76.428572,538.51636 87.857143,534.94493 106.42857,524.94493 120,527.08778 133.57143,529.23064 162.14286,522.08778 172.14286,507.08778 182.14286,492.08778 156.42857,506.3735 128.57143,514.94493 100.71429,523.51636 52.857143,538.51636 47.142857,537.08778 41.428571,535.65921 31.428571,525.65921 25.714286,529.94493 Z"
 id="path27"
 inkscape:connector-curvature="0" />
<path
 style="fill:#000000;stroke:none;stroke-width:1px;stroke-linecap:butt;stroke-linejoin:miter;stroke-opacity:1;fill-opacity:1"
 d="M 258.57143,280.65921 C 258.57143,280.65921 256.42857,302.80207 267.14286,308.51636 277.85714,314.23064 332.14286,299.23064 387.85714,295.65921 443.57143,292.08778 462.14286,290.65921 454.28571,279.23064 446.42857,267.80207 438.57143,267.80207 422.85714,272.08778 407.14286,276.3735 304.28571,288.51636 298.57143,289.23064 292.85714,289.94493 268.57143,274.23064 258.57143,280.65921 Z"
 id="path29"
 inkscape:connector-curvature="0" />
<path
 style="fill:#000000;stroke:none;stroke-width:1px;stroke-linecap:butt;stroke-linejoin:miter;stroke-opacity:1;fill-opacity:1"
 d="M 275.71429,361.01636 C 275.71429,361.01636 263.57143,375.65921 262.14286,381.3735 260.71429,387.08778 245,392.08778 246.42857,396.3735 247.85714,400.65921 264.28571,397.08778 275,402.08778 285.71429,407.08778 290.71429,397.80207 291.42857,387.80207 292.14286,377.80207 292.14286,364.58779 275.71429,361.01636 Z"
 id="path31"
 inkscape:connector-curvature="0"
 sodipodi:nodetypes="cssssc" />
<path
 style="fill:#000000;stroke:none;stroke-width:1px;stroke-linecap:butt;stroke-linejoin:miter;stroke-opacity:1;fill-opacity:1"
 d="M 323.57143,343.51636 C 323.57143,343.51636 325,378.51636 330.71429,379.23064 336.42857,379.94493 342.14286,387.08778 348.57143,376.3735 355,365.65921 356.42857,352.08778 343.57143,347.80207 330.71429,343.51636 328.57143,339.94493 323.57143,343.51636 Z"
 id="path33"
 inkscape:connector-curvature="0" />
<path
 style="fill:#000000;stroke:none;stroke-width:1px;stroke-linecap:butt;stroke-linejoin:miter;stroke-opacity:1;fill-opacity:1"
 d="M 400,316.3735 C 400,316.3735 397.14286,329.94493 409.28571,347.08778 421.42857,364.23064 447.14286,384.23064 454.28571,382.08778 461.42857,379.94493 470,373.51636 467.14286,367.08778 464.28571,360.65921 450.71429,365.65921 447.85714,362.80207 445,359.94493 435,361.3735 431.42857,349.23064 427.85714,337.08778 435.15181,325.19977 429.28571,323.51636 414.62169,319.30817 408.02351,306.46683 400,316.3735 Z"
 id="path35"
 inkscape:connector-curvature="0"
 sodipodi:nodetypes="cscccssc" />
<path
 style="fill:#000000;stroke:none;stroke-width:1px;stroke-linecap:butt;stroke-linejoin:miter;stroke-opacity:1;fill-opacity:1"
 d="M 185.71429,477.80207 C 185.71429,477.80207 194.28571,504.94493 205.71429,504.94493 217.14286,504.94493 225.71429,491.3735 268.57143,484.23064 311.42857,477.08778 412.14286,467.80207 429.28571,468.51636 446.42857,469.23064 511.42857,487.08778 525,489.23064 538.57143,491.3735 550.71429,488.51636 539.28571,474.94493 527.85714,461.3735 523.57143,448.51636 500,453.51636 476.42857,458.51636 364.28571,458.51636 357.85714,459.23064 351.42857,459.94493 264.28571,464.94493 237.14286,472.08778 210,479.23064 190,469.23064 185.71429,477.80207 Z"
 id="path37"
 inkscape:connector-curvature="0" />
<path
 style="fill:#000000;stroke:none;stroke-width:1px;stroke-linecap:butt;stroke-linejoin:miter;stroke-opacity:1;fill-opacity:1"
 d="M 320.71429,411.3735 C 320.71429,411.3735 301.42857,495.65921 293.57143,503.51636 285.71429,511.3735 277.14286,507.08778 274.28571,513.51636 271.42857,519.94493 271.42857,533.51636 279.28571,532.08778 287.14286,530.65921 292.14286,519.23064 300.71429,519.94493 309.28571,520.65921 394.51242,561.67338 405,571.3735 415.93603,581.4884 438.81631,602.3537 445.71429,607.08778 461.11137,617.65478 482.0593,607.59216 428.57143,572.08778 376.24891,537.35694 315,515.65921 304.28571,513.51636 293.57143,511.3735 334.28571,454.23064 338.57143,447.80207 342.85714,441.3735 355.71429,432.80207 352.85714,424.94493 350,417.08778 342.14286,402.80207 320.71429,411.3735 Z"
 id="path39"
 inkscape:connector-curvature="0"
 sodipodi:nodetypes="cssccssscccc" />
<path
 style="fill:#000000;stroke:none;stroke-width:1px;stroke-linecap:butt;stroke-linejoin:miter;stroke-opacity:1;fill-opacity:1"
 d="M 370,432.08778 C 370,432.08778 376.09672,439.82593 378.48237,450.59985 380.26044,458.62985 379.97701,468.34622 373.57143,477.80207 358.57143,499.94493 297.20413,562.29699 292.20413,565.86842 287.19848,569.42855 241.62259,588.1901 225.71429,592.08778 208.37013,596.33726 206.42857,599.23064 220,601.3735 233.57143,603.51636 280.00686,589.58971 290,587.08778 303.32686,583.75121 363.88097,526.52827 367.85714,522.08778 372.14286,517.80207 403.48477,468.93478 404.19906,462.50621 404.91334,456.07763 392.0562,433.93478 389.19906,431.79192 386.34191,429.64906 372.85714,422.80207 370,432.08778 Z"
 id="path43"
 inkscape:connector-curvature="0"
 sodipodi:nodetypes="csscssscccc" />
</g>
</svg>
