<?xml version="1.0" encoding="UTF-8" standalone="no"?>
<!-- Created with Inkscape (http://www.inkscape.org/) -->

<svg
 xmlns:dc="http://purl.org/dc/elements/1.1/"
 xmlns:cc="http://creativecommons.org/ns#"
 xmlns:rdf="http://www.w3.org/1999/02/22-rdf-syntax-ns#"
 xmlns:svg="http://www.w3.org/2000/svg"
 xmlns="http://www.w3.org/2000/svg"
 xmlns:sodipodi="http://sodipodi.sourceforge.net/DTD/sodipodi-0.dtd"
 xmlns:inkscape="http://www.inkscape.org/namespaces/inkscape"
 width="512"
 height="512"
 viewBox="0 0 512 512"
 version="1.1"
 id="svg8"
 inkscape:version="0.92.4 (5da689c313, 2019-01-14)"
 sodipodi:docname="U+8129.svg">
<defs
 id="defs2" />
<sodipodi:namedview
 id="base"
 pagecolor="#ffffff"
 bordercolor="#666666"
 borderopacity="1.0"
 inkscape:pageopacity="0.0"
 inkscape:pageshadow="2"
 inkscape:zoom="0.49497475"
 inkscape:cx="-161.34636"
 inkscape:cy="85.748901"
 inkscape:document-units="px"
 inkscape:current-layer="layer1"
 showgrid="false"
 units="px"
 inkscape:window-width="1920"
 inkscape:window-height="1017"
 inkscape:window-x="-8"
 inkscape:window-y="-8"
 inkscape:window-maximized="1">
<inkscape:grid
 type="xygrid"
 id="grid3724" />
</sodipodi:namedview>
<metadata
 id="metadata5">
<rdf:RDF>
<cc:Work
 rdf:about="">
<dc:format>image/svg+xml</dc:format>
<dc:type
 rdf:resource="http://purl.org/dc/dcmitype/StillImage" />
<dc:title />
</cc:Work>
</rdf:RDF>
</metadata>
<g
 inkscape:label="圖層 1"
 inkscape:groupmode="layer"
 id="layer1"
 transform="translate(0,-161.53327)">
<path
 style="fill:#000000;stroke:none;stroke-width:1px;stroke-linecap:butt;stroke-linejoin:miter;stroke-opacity:1;fill-opacity:1"
 d="m 141.92643,310.38343 c 0,0 25.75889,24.24366 15.65737,36.36549 -10.10153,12.12183 -110.611707,122.22846 -118.692927,127.27922 -8.08122,5.05076 -12.121831,7.07107 -8.586297,9.59645 3.535534,2.52538 83.842664,-44.95179 116.167544,-85.35789 32.32488,-40.4061 41.41625,-45.45686 44.95179,-47.98224 3.53553,-2.52539 -9.09138,-29.7995 -21.21321,-33.84011 -12.12183,-4.04062 -29.29442,-12.62691 -28.28427,-6.06092 z"
 id="path3726"
 inkscape:connector-curvature="0" />
<path
 style="fill:#000000;stroke:none;stroke-width:1px;stroke-linecap:butt;stroke-linejoin:miter;stroke-opacity:1;fill-opacity:1"
 d="m 135.86552,409.37838 c 0,0 2.0203,9.09137 5.55584,16.66752 3.53553,7.57614 9.09137,14.14213 7.07106,30.80965 -2.0203,16.66752 -8.08122,82.32743 -8.58629,84.34774 -0.50508,2.0203 -5.55584,11.11167 3.53553,16.16244 9.09137,5.05076 18.18275,-16.66752 19.1929,-28.28427 1.01015,-11.61676 5.05076,-90.91373 3.53553,-95.45942 -1.51523,-4.54569 -19.29607,-24.11507 -21.2132,-25.75889 -1.60686,-1.37778 -9.08869,-4.5497 -9.09137,1.51523 z"
 id="path3728"
 inkscape:connector-curvature="0"
 sodipodi:nodetypes="csscssssc" />
<path
 style="fill:#000000;stroke:none;stroke-width:1px;stroke-linecap:butt;stroke-linejoin:miter;stroke-opacity:1;fill-opacity:1"
 d="m 203.04066,303.81744 c 0,0 3.03046,9.59645 10.10153,17.17259 7.07107,7.57615 2.0203,75.25637 0.50507,85.35789 -1.51523,10.10153 -4.54568,129.8046 -7.07106,132.83506 -2.52539,3.03046 -11.61676,17.67767 -9.09138,21.71828 2.52538,4.04061 11.11168,13.13198 16.66752,8.5863 5.55584,-4.54569 9.09137,-31.81981 10.6066,-83.33759 1.51523,-51.51778 4.54569,-124.24876 10.10153,-136.87567 5.55584,-12.6269 5.05076,-28.78934 -3.53554,-36.87057 -8.58629,-8.08122 -26.76904,-15.15228 -28.28427,-8.58629 z"
 id="path3730"
 inkscape:connector-curvature="0" />
<path
 style="fill:#000000;stroke:none;stroke-width:1px;stroke-linecap:butt;stroke-linejoin:miter;stroke-opacity:1;fill-opacity:1"
 d="m 306.5813,239.16767 c 0,0 19.1929,24.74874 17.17259,38.89088 -2.0203,14.14213 -20.20305,46.46702 -32.32488,52.52793 -12.12183,6.06092 -7.07107,10.10153 1.01015,9.09137 8.08122,-1.01015 46.9721,-25.25381 54.54824,-51.0127 7.57614,-25.75889 10.10152,-30.80965 -1.51523,-38.3858 -11.61675,-7.57614 -37.88072,-21.2132 -38.89087,-11.11168 z"
 id="path3732"
 inkscape:connector-curvature="0" />
<path
 style="fill:#000000;stroke:none;stroke-width:1px;stroke-linecap:butt;stroke-linejoin:miter;stroke-opacity:1;fill-opacity:1"
 d="m 344.96709,298.76668 c 0,0 14.14214,15.65736 18.18275,14.14213 4.04061,-1.51523 70.71068,-11.61675 74.24621,-15.65736 3.53554,-4.04061 -2.52538,-16.66752 -14.14213,-17.1726 -11.61676,-0.50507 -58.58885,18.68783 -61.61931,18.18275 -3.03046,-0.50508 -17.17259,-6.06092 -16.66752,0.50508 z"
 id="path3734"
 inkscape:connector-curvature="0" />
<path
 style="fill:#000000;stroke:none;stroke-width:1px;stroke-linecap:butt;stroke-linejoin:miter;stroke-opacity:1;fill-opacity:1"
 d="m 236.3757,380.58903 c 0,0 15.15228,11.61676 22.72843,12.12183 7.57614,0.50508 89.90357,-18.68782 105.56094,-19.1929 15.65736,-0.50507 107.58125,3.53554 121.72338,8.08122 14.14214,4.54569 22.22336,-6.56599 -10.10152,-19.19289 -32.32489,-12.62691 -26.26397,-1.51523 -51.51778,-1.01016 -25.25382,0.50508 -141.92644,14.14214 -152.53304,16.16244 -10.6066,2.02031 -37.88072,-4.04061 -35.86041,3.03046 z"
 id="path3736"
 inkscape:connector-curvature="0" />
<path
 style="fill:#000000;stroke:none;stroke-width:1px;stroke-linecap:butt;stroke-linejoin:miter;stroke-opacity:1;fill-opacity:1"
 d="m 363.14984,316.44435 c 0,0 -6.06092,41.41625 -33.84011,70.2056 -27.7792,28.78934 -71.21575,59.599 -85.86297,63.63961 -14.64721,4.04061 28.78935,7.57614 47.47717,-5.55584 18.68783,-13.13198 70.71068,-70.2056 78.28683,-80.81221 7.57614,-10.6066 23.2335,-26.26396 21.71828,-34.34518 -1.51523,-8.08122 -29.7995,-39.39595 -27.7792,-13.13198 z"
 id="path3738"
 inkscape:connector-curvature="0" />
<path
 style="fill:#000000;stroke:none;stroke-width:1px;stroke-linecap:butt;stroke-linejoin:miter;stroke-opacity:1;fill-opacity:1"
 d="m 309.61176,436.14742 c 0,0 9.09137,88.89343 3.03045,101.01526 -6.06091,12.12183 -11.11168,14.14213 -7.57614,21.2132 3.53553,7.07107 12.12183,26.26397 15.65736,19.69797 3.53554,-6.56599 8.5863,-51.0127 7.57615,-65.15483 -1.01016,-14.14214 -4.54569,-72.22591 -7.57615,-77.78175 -3.03045,-5.55584 -10.6066,-8.5863 -11.11167,1.01015 z"
 id="path3740"
 inkscape:connector-curvature="0" />
<path
 style="fill:#000000;stroke:none;stroke-width:1px;stroke-linecap:butt;stroke-linejoin:miter;stroke-opacity:1;fill-opacity:1"
 d="m 301.53053,414.93422 c 0,0 -8.08121,18.18274 8.08123,21.2132 16.16244,3.03046 48.48732,-10.6066 67.68022,-16.66752 19.19289,-6.06091 23.2335,-13.63705 21.71828,20.20306 -1.51523,33.84011 7.07106,106.06601 -1.01016,105.05586 -8.08122,-1.01015 -29.7995,-10.6066 -22.72843,1.01015 7.07107,11.61676 25.25381,45.96194 28.28427,46.46702 3.03046,0.50508 9.59645,-12.12183 10.6066,-30.80965 1.01016,-18.68782 -1.51523,-114.65232 0.50508,-121.72338 2.02031,-7.07107 7.57614,-12.12183 11.61675,-18.18275 4.04061,-6.06092 -6.06091,-11.61675 -16.16244,-19.69797 -10.10152,-8.08123 -11.11167,1.01015 -27.27412,4.04061 -16.16244,3.03045 -58.58884,7.07106 -63.13453,7.57614 -4.54569,0.50508 -12.12183,-5.55584 -18.18275,1.51523 z"
 id="path3742"
 inkscape:connector-curvature="0" />
<path
 style="fill:#000000;stroke:none;stroke-width:1px;stroke-linecap:butt;stroke-linejoin:miter;stroke-opacity:1;fill-opacity:1"
 d="m 334.86557,465.94692 c 0,0 7.07107,8.08122 10.6066,8.08122 3.53553,0 30.80965,-2.0203 31.31473,-5.55584 0.50508,-3.53553 -8.08122,-13.63706 -11.61675,-13.13198 -3.53554,0.50508 -32.32489,4.54569 -30.30458,10.6066 z"
 id="path3744"
 inkscape:connector-curvature="0" />
<path
 style="fill:#000000;stroke:none;stroke-width:1px;stroke-linecap:butt;stroke-linejoin:miter;stroke-opacity:1;fill-opacity:1"
 d="m 322.74374,521.50531 c 0,0 15.65736,9.59645 21.71828,9.09137 6.06091,-0.50507 37.37564,-10.10152 36.87057,-13.63705 -0.50508,-3.53554 -18.18275,-11.61676 -22.22336,-10.10153 -4.04061,1.51523 -36.87057,10.10153 -36.36549,14.64721 z"
 id="path3746"
 inkscape:connector-curvature="0" />
</g>
</svg>
