<?xml version="1.0" encoding="UTF-8" standalone="no"?>
<!-- Created with Inkscape (http://www.inkscape.org/) -->

<svg
 xmlns:dc="http://purl.org/dc/elements/1.1/"
 xmlns:cc="http://creativecommons.org/ns#"
 xmlns:rdf="http://www.w3.org/1999/02/22-rdf-syntax-ns#"
 xmlns:svg="http://www.w3.org/2000/svg"
 xmlns="http://www.w3.org/2000/svg"
 xmlns:sodipodi="http://sodipodi.sourceforge.net/DTD/sodipodi-0.dtd"
 xmlns:inkscape="http://www.inkscape.org/namespaces/inkscape"
 width="580"
 height="580"
 viewBox="0 0 580 580"
 version="1.1"
 id="svg8"
 inkscape:version="0.92.4 (5da689c313, 2019-01-14)"
 sodipodi:docname="U+85AA.svg">
<defs
 id="defs2" />
<sodipodi:namedview
 id="base"
 pagecolor="#ffffff"
 bordercolor="#666666"
 borderopacity="1.0"
 inkscape:pageopacity="0.0"
 inkscape:pageshadow="2"
 inkscape:zoom="0.79950022"
 inkscape:cx="109.56556"
 inkscape:cy="147.26148"
 inkscape:document-units="px"
 inkscape:current-layer="layer1"
 showgrid="false"
 units="px"
 inkscape:window-width="1920"
 inkscape:window-height="1017"
 inkscape:window-x="-8"
 inkscape:window-y="-8"
 inkscape:window-maximized="1">
<inkscape:grid
 type="xygrid"
 id="grid21" />
</sodipodi:namedview>
<metadata
 id="metadata5">
<rdf:RDF>
<cc:Work
 rdf:about="">
<dc:format>image/svg+xml</dc:format>
<dc:type
 rdf:resource="http://purl.org/dc/dcmitype/StillImage" />
<dc:title />
</cc:Work>
</rdf:RDF>
</metadata>
<g
 inkscape:label="圖層 1"
 inkscape:groupmode="layer"
 id="layer1"
 transform="translate(0,-143.54165)">
<path
 style="fill:#000000;stroke:none;stroke-width:1px;stroke-linecap:butt;stroke-linejoin:miter;stroke-opacity:1;fill-opacity:1"
 d="m 171.35705,279.51426 c 0,0 16.26016,28.14258 20.0125,34.39649 3.75235,6.2539 13.7586,10.00625 19.38711,8.13008 5.62852,-1.87618 3.12696,-9.38087 10.00625,-12.50782 6.8793,-3.12695 38.77423,-8.13008 41.27579,-11.88242 2.50156,-3.75235 8.13008,-10.63164 3.75234,-15.00938 -4.37773,-4.37773 -16.26015,-6.8793 -36.27266,-1.87617 -20.0125,5.00313 -48.15508,-3.75234 -58.16133,-1.25078 z"
 id="path23"
 inkscape:connector-curvature="0" />
<path
 style="fill:#000000;stroke:none;stroke-width:1px;stroke-linecap:butt;stroke-linejoin:miter;stroke-opacity:1;fill-opacity:1"
 d="m 208.88049,230.73378 c 0,0 22.51407,14.38399 25.01563,23.13946 2.50156,8.75547 6.8793,54.40899 3.12695,58.78672 -3.75234,4.37774 -3.12695,10.00626 5.62852,15.63477 8.75547,5.62852 18.76172,14.38399 20.0125,-8.75547 1.25078,-23.13945 3.43813,-47.20427 -6.87929,-67.2295 -3.68703,-7.1562 -8.13009,-10.94433 -18.13634,-15.94746 -10.00625,-5.00312 -33.77109,-16.88555 -28.76797,-5.62852 z"
 id="path25"
 inkscape:connector-curvature="0"
 sodipodi:nodetypes="cscssasc" />
<path
 style="fill:#000000;stroke:none;stroke-width:1px;stroke-linecap:butt;stroke-linejoin:miter;stroke-opacity:1;fill-opacity:1"
 d="m 308.943,182.5787 c 0,0 7.50469,10.63164 5.62852,23.13946 -1.87617,12.50781 -13.13321,75.67227 -22.51407,89.43087 -9.38086,13.75859 -17.51094,28.76797 -20.0125,31.26953 -2.50156,2.50156 2.50156,6.8793 7.50469,2.50156 5.00313,-4.37773 24.39024,-22.51406 35.02188,-35.64727 10.63164,-13.1332 33.14571,-60.0375 34.39649,-70.04375 1.25078,-10.00626 -4.37774,-23.76485 -16.88555,-30.64415 -12.50782,-6.8793 -20.63789,-17.51094 -23.13946,-10.00625 z"
 id="path27"
 inkscape:connector-curvature="0" />
<path
 style="fill:#000000;stroke:none;stroke-width:1px;stroke-linecap:butt;stroke-linejoin:miter;stroke-opacity:1;fill-opacity:1"
 d="m 312.69535,257.62558 c 6.68569,2.02164 16.76924,7.96995 25.64101,5.62852 8.65779,-2.28495 28.76798,-14.38399 36.27266,-14.38399 7.50469,0 36.27267,6.25391 34.39649,15.00938 -1.87617,8.75547 -35.02188,16.88555 -44.40274,18.76172 -9.38086,1.87617 -50.03125,5.62852 -51.28203,3.12696 -1.231,-2.46993 -5.43716,-6.19791 -7.50469,-16.88555 -0.9046,-4.67614 2.66998,-12.52986 6.8793,-11.25704 z"
 id="path29"
 inkscape:connector-curvature="0"
 sodipodi:nodetypes="ssscscss" />
<path
 style="fill:#000000;stroke:none;stroke-width:1px;stroke-linecap:butt;stroke-linejoin:miter;stroke-opacity:1;fill-opacity:1"
 d="m 185.74104,351.43419 c 0,0 30.64414,1.87617 36.89805,4.37773 6.2539,2.50157 17.51094,18.76172 13.1332,25.01563 -4.37773,6.25391 -9.38086,13.1332 -17.51094,6.8793 -8.13008,-6.25391 -43.77735,-34.39649 -32.52031,-36.27266 z"
 id="path31"
 inkscape:connector-curvature="0" />
<path
 style="fill:#000000;stroke:none;stroke-width:1px;stroke-linecap:butt;stroke-linejoin:miter;stroke-opacity:1;fill-opacity:1"
 d="m 117.57345,394.58615 c 0,0 19.38711,18.76172 23.13946,25.01562 3.75234,6.25391 2.50156,-1.25078 15.00937,-5.62851 12.50782,-4.37774 42.52657,-15.63477 53.7836,-17.51094 11.25703,-1.87617 40.6504,-11.25703 49.40587,-10.63164 8.75547,0.62539 25.64102,0.62539 34.39648,3.12695 8.75547,2.50156 16.88555,-2.50156 15.63477,-6.25391 -1.25078,-3.75234 -25.64102,-18.13633 -29.39336,-15.63476 -3.75234,2.50156 -22.51407,11.25703 -30.01875,12.50781 -7.50469,1.25078 -86.30392,23.13945 -94.434,23.13945 -8.13008,0 -40.65039,-14.38398 -37.52344,-8.13007 z"
 id="path33"
 inkscape:connector-curvature="0" />
<path
 style="fill:#000000;stroke:none;stroke-width:1px;stroke-linecap:butt;stroke-linejoin:miter;stroke-opacity:1;fill-opacity:1"
 d="m 156.97306,429.60802 c -6.56725,6.58083 6.25391,23.76485 9.38086,26.26641 3.12696,2.50157 9.38086,14.38399 15.00938,12.50782 5.62852,-1.87617 12.50781,-25.01563 12.50781,-29.39337 0,-4.37773 -0.66415,-14.23961 -7.50468,-9.38086 -13.62924,9.68068 -24.1417,-5.26253 -29.39337,0 z"
 id="path35"
 inkscape:connector-curvature="0"
 sodipodi:nodetypes="ssssss" />
<path
 style="fill:#000000;stroke:none;stroke-width:1px;stroke-linecap:butt;stroke-linejoin:miter;stroke-opacity:1;fill-opacity:1"
 d="m 228.89299,400.84005 c 0,0 -3.75234,23.76485 -8.75547,35.64727 -5.00312,11.88243 -12.50781,17.51094 -12.50781,22.51407 0,5.00312 2.27862,5.7133 4.37773,5.00312 2.75053,-0.93058 3.69049,-8.14555 13.7586,-15.00937 8.76927,-5.97835 13.7586,-10.00626 19.38711,-13.7586 5.62852,-3.75234 8.75547,-16.88555 5.00313,-22.51406 -3.75235,-5.62852 -18.13633,-22.51407 -21.26329,-11.88243 z"
 id="path37"
 inkscape:connector-curvature="0"
 sodipodi:nodetypes="ccsssssc" />
<path
 style="fill:#000000;stroke:none;stroke-width:1px;stroke-linecap:butt;stroke-linejoin:miter;stroke-opacity:1;fill-opacity:1"
 d="m 123.82736,475.26154 c 0,0 15.63476,20.01251 21.88867,18.13634 6.25391,-1.87618 4.37774,-8.75547 7.50469,-9.38087 3.12695,-0.62539 79.42462,-20.0125 89.43087,-20.0125 10.00625,0 23.13945,3.12696 21.88867,0 -1.25078,-3.12695 -19.6998,-19.69981 -25.32832,-17.19824 -5.62851,2.50156 -59.35262,22.86518 -69.41836,24.39023 -8.02559,1.21595 -44.45444,-1.02508 -45.96622,4.06504 z"
 id="path39"
 inkscape:connector-curvature="0"
 sodipodi:nodetypes="cccscssc" />
<path
 style="fill:#000000;stroke:none;stroke-width:1px;stroke-linecap:butt;stroke-linejoin:miter;stroke-opacity:1;fill-opacity:1"
 d="m 43.777348,532.79749 c 0,0 29.393363,30.64414 36.898051,33.14571 7.504689,2.50156 5.003126,-6.8793 15.634768,-13.13321 10.631643,-6.25391 45.653523,-21.26328 65.666023,-26.26641 20.0125,-5.00312 66.9168,-13.75859 73.17071,-13.75859 6.25391,0 39.39961,0 41.27579,-4.37774 1.87617,-4.37773 -8.13008,-15.63477 -15.63477,-18.76172 -7.50469,-3.12695 -10.63164,6.25391 -28.76797,10.00625 -18.13633,3.75235 -131.95744,32.52032 -139.462127,32.52032 -7.504689,0 -53.158209,-7.50469 -48.780475,0.62539 z"
 id="path41"
 inkscape:connector-curvature="0" />
<path
 style="fill:#000000;stroke:none;stroke-width:1px;stroke-linecap:butt;stroke-linejoin:miter;stroke-opacity:1;fill-opacity:1"
 d="m 165.7383,476.10805 c -3.29676,1.6007 -8.13985,6.65818 -5.01289,9.78514 3.12695,3.12695 15.63477,3.75234 17.51094,8.75547 1.87617,5.00312 20.63789,52.53281 14.38398,76.92305 -6.2539,24.39024 -21.57598,23.76485 -25.32832,21.26328 -3.75235,-2.50156 -15.94746,3.12696 -6.5666,6.8793 9.38086,3.75235 18.76172,18.13633 20.0125,30.01876 1.25078,11.88242 13.7586,14.38398 18.13633,10.63164 4.37774,-3.75235 10.63164,-73.7961 10.63164,-79.42462 0,-5.62852 0.62539,-58.78673 -1.25078,-62.53907 -1.87617,-3.75234 -16.26016,-24.39024 -23.13945,-24.39024 -6.75663,0 -11.79347,-1.58496 -19.37735,2.09729 z"
 id="path43"
 inkscape:connector-curvature="0"
 sodipodi:nodetypes="sssscsssssss" />
<path
 style="fill:#000000;stroke:none;stroke-width:1px;stroke-linecap:butt;stroke-linejoin:miter;stroke-opacity:1;fill-opacity:1"
 d="m 124.45275,545.3053 c 0,0 -6.8793,18.13633 -6.8793,22.51407 0,4.37773 -1.25078,28.14258 4.37774,29.39336 5.62851,1.25078 26.89179,-10.00625 24.39023,-24.39024 -2.50156,-14.38398 -16.26016,-31.89492 -21.88867,-27.51719 z"
 id="path45"
 inkscape:connector-curvature="0" />
<path
 style="fill:#000000;stroke:none;stroke-width:1px;stroke-linecap:butt;stroke-linejoin:miter;stroke-opacity:1;fill-opacity:1"
 d="m 237.02307,541.55296 c 0,0 8.13008,36.27266 15.00938,41.27578 6.8793,5.00313 18.76172,8.13008 23.76485,4.37774 5.00312,-3.75235 8.78014,-15.6568 3.75234,-21.26328 -5.03734,-5.61712 -12.26215,-13.63202 -18.13633,-18.13633 -8.13008,-3.75235 -18.76172,-11.88243 -24.39024,-6.25391 z"
 id="path47"
 inkscape:connector-curvature="0"
 sodipodi:nodetypes="cscscc" />
<path
 style="fill:#000000;stroke:none;stroke-width:1px;stroke-linecap:butt;stroke-linejoin:miter;stroke-opacity:1;fill-opacity:1"
 d="m 372.10746,344.55489 c 0,0 10.00625,18.76172 5.00313,28.14258 -5.00313,9.38086 -35.33457,27.98623 -46.59161,24.23389 -11.25703,-3.75234 -20.95059,-14.22764 -25.95371,-9.22451 -5.00313,5.00312 0,16.26016 9.38086,20.0125 9.38086,3.75234 31.26953,6.8793 43.15196,0 11.88242,-6.8793 47.52969,-23.76485 47.52969,-30.01875 0,-6.25391 -3.12696,-20.6379 -13.13321,-26.8918 -10.00625,-6.25391 -16.26015,-11.25704 -19.38711,-6.25391 z"
 id="path49"
 inkscape:connector-curvature="0"
 sodipodi:nodetypes="csscssssc" />
<path
 style="fill:#000000;stroke:none;stroke-width:1px;stroke-linecap:butt;stroke-linejoin:miter;stroke-opacity:1;fill-opacity:1"
 d="m 307.06683,395.21154 c 0,0 10.00625,55.03438 9.38086,75.67227 -0.62539,20.63789 -1.25078,102.56407 -34.39649,132.58283 -33.1457,30.01875 -43.77735,36.27266 -47.52969,37.52344 -3.75234,1.25078 -11.88242,16.26016 0,11.25703 11.88242,-5.00312 68.79298,-7.50469 85.05313,-81.30079 16.26016,-73.7961 11.25704,-140.7129 10.63165,-155.09689 -0.62539,-14.38399 -6.8793,-23.76485 -23.13946,-20.63789 z"
 id="path51"
 inkscape:connector-curvature="0" />
<path
 style="fill:#000000;stroke:none;stroke-width:1px;stroke-linecap:butt;stroke-linejoin:miter;stroke-opacity:1;fill-opacity:1"
 d="m 295.18441,455.87443 c 0,0 -1.25078,13.7586 21.26328,23.13946 22.51407,9.38086 16.88555,3.75234 33.7711,-0.62539 16.88555,-4.37774 48.2776,-12.1198 67.54219,-14.38399 25.10958,-2.95116 47.5297,-4.37773 61.91368,-1.87617 14.38399,2.50156 18.76172,-8.13008 21.26328,-15.63477 2.50157,-7.50469 -1.25078,-28.76797 -13.75859,-20.63789 -12.50781,8.13008 -83.80235,24.39024 -102.56407,28.14258 -18.76172,3.75235 -64.3808,7.336 -73.17071,5.62852 -8.66803,-1.68381 -9.33422,-5.65098 -16.26016,-3.75235 z"
 id="path53"
 inkscape:connector-curvature="0"
 sodipodi:nodetypes="csssscsssc" />
<path
 style="fill:#000000;stroke:none;stroke-width:1px;stroke-linecap:butt;stroke-linejoin:miter;stroke-opacity:1;fill-opacity:1"
 d="m 370.85668,482.14084 c 0,0 16.88555,11.25704 17.51094,23.76485 0.62539,12.50781 -3.12695,90.68165 -3.75234,99.43712 -0.62539,8.75547 -3.12696,75.04688 -2.50157,80.05001 0.62539,5.00312 4.37774,16.26016 9.38086,20.63789 5.00313,4.37774 14.38399,-5.00312 14.38399,-13.75859 0,-8.75547 5.00313,-111.94494 4.37773,-118.82424 -0.62539,-6.87929 0,-68.79297 4.37774,-70.66914 4.37773,-1.87618 -5.62852,-20.6379 -12.50781,-21.88868 -6.8793,-1.25078 -33.14571,-15.63477 -31.26954,1.25078 z"
 id="path55"
 inkscape:connector-curvature="0" />
</g>
</svg>
