<?xml version="1.0" encoding="UTF-8" standalone="no"?>
<!-- Created with Inkscape (http://www.inkscape.org/) -->

<svg
 xmlns:dc="http://purl.org/dc/elements/1.1/"
 xmlns:cc="http://creativecommons.org/ns#"
 xmlns:rdf="http://www.w3.org/1999/02/22-rdf-syntax-ns#"
 xmlns:svg="http://www.w3.org/2000/svg"
 xmlns="http://www.w3.org/2000/svg"
 xmlns:sodipodi="http://sodipodi.sourceforge.net/DTD/sodipodi-0.dtd"
 xmlns:inkscape="http://www.inkscape.org/namespaces/inkscape"
 width="579"
 height="579"
 viewBox="0 0 579 579"
 version="1.1"
 id="svg8"
 inkscape:version="0.92.4 (5da689c313, 2019-01-14)"
 sodipodi:docname="U+9B44.svg">
<defs
 id="defs2" />
<sodipodi:namedview
 id="base"
 pagecolor="#ffffff"
 bordercolor="#666666"
 borderopacity="1.0"
 inkscape:pageopacity="0.0"
 inkscape:pageshadow="2"
 inkscape:zoom="0.79950023"
 inkscape:cx="-215.75552"
 inkscape:cy="167.01163"
 inkscape:document-units="px"
 inkscape:current-layer="layer1"
 showgrid="false"
 units="px"
 inkscape:window-width="1920"
 inkscape:window-height="1017"
 inkscape:window-x="-8"
 inkscape:window-y="-8"
 inkscape:window-maximized="1">
<inkscape:grid
 type="xygrid"
 id="grid21" />
</sodipodi:namedview>
<metadata
 id="metadata5">
<rdf:RDF>
<cc:Work
 rdf:about="">
<dc:format>image/svg+xml</dc:format>
<dc:type
 rdf:resource="http://purl.org/dc/dcmitype/StillImage" />
<dc:title />
</cc:Work>
</rdf:RDF>
</metadata>
<g
 inkscape:label="圖層 1"
 inkscape:groupmode="layer"
 id="layer1"
 transform="translate(0,-143.80624)">
<path
 style="fill:#000000;stroke:none;stroke-width:1px;stroke-linecap:butt;stroke-linejoin:miter;stroke-opacity:1;fill-opacity:1"
 d="m 116.30333,257.5929 c 0,0 -9.28657,14.5932 -4.42218,19.4576 4.8644,4.86439 21.22647,18.13093 20.34203,24.32199 -0.88443,6.19105 -21.66868,68.54379 -35.377438,61.4683 -13.708758,-7.07549 -24.764208,-19.01538 -24.764208,-19.01538 0,0 -10.613232,-0.44221 -0.884436,12.38211 9.728796,12.82432 22.1109,54.39281 21.668682,65.44826 -0.442218,11.05545 2.653308,60.58387 2.21109,64.12161 -0.442218,3.53775 9.7288,20.78425 11.49767,8.84436 1.76887,-11.93988 -6.19105,-107.90119 -4.42218,-110.99672 1.76887,-3.09552 40.24184,-64.12161 46.43289,-72.52375 6.19105,-8.40214 6.63327,-17.2465 0,-22.1109 -6.63327,-4.8644 -22.99534,-31.83969 -32.28192,-31.39748 z"
 id="path25"
 inkscape:connector-curvature="0" />
<path
 style="fill:#000000;stroke:none;stroke-width:1px;stroke-linecap:butt;stroke-linejoin:miter;stroke-opacity:1;fill-opacity:1"
 d="m 138.85645,339.40323 c 0,0 0,12.82433 14.15098,13.70876 14.15097,0.88444 28.74417,-6.19105 31.39748,-5.30661 2.6533,0.88443 7.07548,7.5177 6.19105,13.26654 -0.88444,5.74883 -20.78425,131.78096 -23.87977,132.22318 -3.09553,0.44222 -13.70876,-1.32666 -12.38211,6.19105 1.32666,7.51771 3.09553,25.20643 8.40214,29.62861 5.30662,4.42218 10.61324,10.17101 14.15098,8.84436 3.53774,-1.32666 7.07549,-7.51771 7.07549,-7.51771 0,0 -7.07549,-17.68872 -4.42218,-27.85973 2.65331,-10.17102 18.35205,-120.50441 20.12092,-124.04215 1.76887,-3.53775 10.83434,-23.21645 10.39212,-27.19641 -0.44222,-3.97996 -7.95992,-21.22646 -17.2465,-20.34203 -9.28658,0.88444 -44.66402,-0.88443 -53.9506,8.40214 z"
 id="path27"
 inkscape:connector-curvature="0"
 sodipodi:nodetypes="csccscsccscscc" />
<path
 style="fill:#000000;stroke:none;stroke-width:1px;stroke-linecap:butt;stroke-linejoin:miter;stroke-opacity:1;fill-opacity:1"
 d="m 114.53446,405.29372 c 0,0 3.53775,26.53308 18.13094,25.64864 14.59319,-0.88444 32.28191,-9.28658 31.39748,-12.82432 -0.88444,-3.53775 -21.22647,-16.80429 -26.53308,-16.80429 -5.30662,0 -19.89981,-1.32665 -22.99534,3.97997 z"
 id="path29"
 inkscape:connector-curvature="0" />
<path
 style="fill:#000000;stroke:none;stroke-width:1px;stroke-linecap:butt;stroke-linejoin:miter;stroke-opacity:1;fill-opacity:1"
 d="m 53.950596,485.77739 c 0,0 -4.864398,11.05545 -0.442218,13.26654 4.42218,2.21109 17.246502,17.2465 22.1109,17.2465 4.864398,0 34.050782,-16.80428 53.066162,-22.1109 19.01537,-5.30661 39.3574,-2.6533 34.493,-10.61323 -4.8644,-7.95992 -22.1109,-16.36206 -33.16635,-16.36206 -11.05545,0 -53.066158,16.80428 -55.277248,18.13093 -2.21109,1.32666 -18.573156,-3.09552 -20.784246,0.44222 z"
 id="path31"
 inkscape:connector-curvature="0" />
<path
 style="fill:#000000;stroke:none;stroke-width:1px;stroke-linecap:butt;stroke-linejoin:miter;stroke-opacity:1;fill-opacity:1"
 d="m 223.32009,311.10128 c 0,0 -6.19105,9.7288 11.93989,23.43756 18.13093,13.70875 17.04111,61.33878 17.04111,61.33878 0,0 5.512,17.81824 10.3764,18.70267 4.8644,0.88444 6.19105,-0.44221 6.19105,-0.44221 0,0 11.05545,-49.0862 4.42218,-68.54379 -6.63327,-19.4576 -10.61323,-24.76421 -22.55311,-28.30196 -11.93989,-3.53774 -20.78425,-10.61323 -27.41752,-6.19105 z"
 id="path33"
 inkscape:connector-curvature="0"
 sodipodi:nodetypes="cscccssc" />
<path
 style="fill:#000000;stroke:none;stroke-width:1px;stroke-linecap:butt;stroke-linejoin:miter;stroke-opacity:1;fill-opacity:1"
 d="m 275.94403,281.47268 c 0,0 -3.09552,23.43755 7.95993,26.97529 11.05545,3.53775 84.02142,-9.72879 85.79029,-10.17101 1.76887,-0.44222 19.89981,0.44222 20.34203,5.74883 0.44221,5.30662 -25.64865,86.67473 -25.20643,90.21248 0.44222,3.53774 6.63327,5.30661 6.63327,5.30661 0,0 37.14631,-72.52375 44.2218,-75.61928 7.07549,-3.09552 16.80428,-11.93988 17.68872,-17.68872 0.88444,-5.74883 -22.55312,-29.18638 -32.72413,-29.6286 -10.17102,-0.44222 -7.51771,8.40214 -10.17102,8.40214 -2.6533,0 -65.44826,14.15098 -75.61927,9.28658 -10.17102,-4.8644 -38.47297,-25.64865 -38.91519,-12.82432 z"
 id="path35"
 inkscape:connector-curvature="0" />
<path
 style="fill:#000000;stroke:none;stroke-width:1px;stroke-linecap:butt;stroke-linejoin:miter;stroke-opacity:1;fill-opacity:1"
 d="m 281.25065,366.37853 c 0,0 -4.42218,6.63327 6.19105,10.17102 10.61323,3.53774 69.42823,-20.34203 69.42823,-20.34203 0,0 7.5177,-2.65331 3.97996,-7.51771 -3.53775,-4.8644 -78.71481,15.47763 -79.59924,17.68872 z"
 id="path37"
 inkscape:connector-curvature="0" />
<path
 style="fill:#000000;stroke:none;stroke-width:1px;stroke-linecap:butt;stroke-linejoin:miter;stroke-opacity:1;fill-opacity:1"
 d="m 291.42166,300.48805 c 0,0 -5.30661,8.84436 -3.09552,11.49767 2.21109,2.65331 6.81644,5.80249 11.68084,6.2447 4.86439,0.44222 10.87227,12.77067 10.87227,17.19285 0,4.42218 -4.42218,40.24184 -3.09552,42.45293 0.24657,5.09131 3.94226,22.65365 8.84436,24.76421 4.9078,2.11301 26.09086,-50.85507 23.43755,-61.91052 -2.65331,-11.05545 -24.76421,-35.37744 -34.05078,-37.14631 -9.28658,-1.76888 -11.49767,-3.53775 -14.5932,-3.09553 z"
 id="path39"
 inkscape:connector-curvature="0"
 sodipodi:nodetypes="cscscsssc" />
<path
 style="fill:#000000;stroke:none;stroke-width:1px;stroke-linecap:butt;stroke-linejoin:miter;stroke-opacity:1;fill-opacity:1"
 d="m 207.84246,422.54022 c 0,0 16.36207,16.36206 21.66868,15.91985 5.30662,-0.44222 56.60391,-22.1109 60.58387,-22.1109 3.97996,0 80.48367,-12.82433 88.00138,-8.84436 7.51771,3.97996 11.05545,-7.51771 9.28658,-9.7288 -1.76887,-2.21109 -20.34203,-18.57316 -24.76421,-14.15098 -4.42218,4.42218 -36.70409,16.80429 -54.39281,20.78425 -17.68872,3.97996 -61.46831,18.13094 -66.3327,18.13094 -4.8644,0 -33.16635,-4.8644 -34.05079,0 z"
 id="path41"
 inkscape:connector-curvature="0" />
<path
 style="fill:#000000;stroke:none;stroke-width:1px;stroke-linecap:butt;stroke-linejoin:miter;stroke-opacity:1;fill-opacity:1"
 d="m 329.45241,402.64041 c 0,0 -97.28796,104.36345 -103.92123,106.13232 -6.63327,1.76887 -44.2218,15.91985 -50.41285,21.22646 -6.19105,5.30662 -11.49767,17.2465 -5.30662,24.32199 6.19105,7.07549 35.37744,-0.88443 40.68406,-8.40214 5.30661,-7.51771 32.28191,-38.03075 34.93522,-39.3574 2.65331,-1.32666 84.02142,-88.88582 92.42356,-89.32804 8.40214,-0.44222 15.91985,-12.3821 14.5932,-15.03541 -1.32666,-2.65331 -17.24651,-2.65331 -22.99534,0.44222 z"
 id="path43"
 inkscape:connector-curvature="0" />
<path
 style="fill:#000000;stroke:none;stroke-width:1px;stroke-linecap:butt;stroke-linejoin:miter;stroke-opacity:1;fill-opacity:1"
 d="m 313.97478,425.63574 c 0,0 -4.8644,7.95993 0.88444,10.17102 5.74883,2.21109 17.68876,5.7488 19.45759,7.95992 1.76877,2.21105 -4.83662,41.13738 -6.19105,51.29729 -1.31318,9.85047 -5.30662,35.81966 5.74883,52.62394 11.05545,16.80429 45.10624,23.43756 54.83503,24.32199 9.7288,0.88444 144.60529,-1.76887 153.44965,-4.8644 8.84436,-3.09552 17.2465,-5.74883 17.2465,-9.28657 0,-3.53775 -6.63327,-16.36207 -11.49767,-19.89981 -4.8644,-3.53775 -16.36206,-42.01071 -16.36206,-42.01071 0,0 -6.19106,-2.65331 -6.63327,1.76887 -0.44222,4.42218 -8.40215,40.24184 -16.36207,44.2218 -7.95992,3.97996 -99.32662,13.4649 -113.65003,11.93988 -17.54067,-1.86756 -55.27725,0.44222 -55.71946,-25.64864 -0.44221,-26.09086 18.57315,-76.94593 18.57315,-76.94593 0,0 2.21109,-15.91985 -12.3821,-19.45759 -14.5932,-3.53775 -26.9753,-10.17102 -31.39748,-6.19106 z"
 id="path45"
 inkscape:connector-curvature="0"
 sodipodi:nodetypes="cssssscscccssscsc" />
<path
 style="fill:#000000;stroke:none;stroke-width:1px;stroke-linecap:butt;stroke-linejoin:miter;stroke-opacity:1;fill-opacity:1"
 d="m 391.80515,407.94702 c 0,0 19.89981,2.21109 26.53308,8.40215 6.63327,6.19105 15.03541,23.87977 9.72879,27.41751 -5.30661,3.53775 -10.17101,10.61323 -16.36206,1.76887 -6.19105,-8.84436 -7.51771,-20.78424 -11.49767,-25.20642 -3.97996,-4.42218 -15.03541,-7.51771 -8.40214,-12.38211 z"
 id="path47"
 inkscape:connector-curvature="0" />
</g>
</svg>
