<?xml version="1.0" standalone="no"?>
<!DOCTYPE svg PUBLIC "-//W3C//DTD SVG 1.1//EN" "http://www.w3.org/Graphics/SVG/1.1/DTD/svg11.dtd" >
<svg xmlns="http://www.w3.org/2000/svg" xmlns:xlink="http://www.w3.org/1999/xlink" version="1.1" viewBox="0 0 256 256">
  <g transform="matrix(1 0 0 -1 0 204)">
   <path fill="currentColor"
d="M141 205q2 -1 2 -2t-1 -2q-9 -3 -17 -28q-12 -31 -39 -97q-3 -6 -5 -5q-1 1 2 7q12 27 26 62q19 48 24 57q3 9 8 8zM141 186q4 0 7 -6q1 -1 3 -2q18 -20 48 -59q5 -7 17 -8q20 -3 35 -7q2 -2 2 -3t-2 0q-17 2 -36 2q-11 -1 -17 10q-33 44 -51 63q-7 10 -16 4q-3 -1 -3 0
q-1 2 2 3q2 0 5 1zM157 115q8 5 15 -3q0 -2 -6 -4l-6 -2q-13 -2 -26 -8q-8 -5 -18 -1q-3 0 -3 2q0 1 3 2q34 8 41 14zM138 91q-2 4 2 2l9 -9q1 -1 3 -2q15 2 18 9q1 3 7 2q7 -2 14 -7q2 -2 1 -4t-3 -1q-13 2 -37 -4q-3 -5 -5 -10q-1 -3 -1 -4q19 -26 44 -44q9 -7 23 -8
q20 -4 36 -11q3 0 -1 -1q-25 3 -43 3q-10 0 -17 7q-3 2 -6 6q-26 29 -37 40q1 -56 6 -80q0 -6 -4 -5q-9 10 -19 33q-1 2 -1 3q1 0 4 -2q1 -4 6 -6l3 -3q2 -1 3 0q1 0 1 3q-2 14 -3 54q-25 -31 -48 -44q-7 -3 -1 2q31 25 47 55q-1 1 -2 4v4q-10 -2 -21 -6q-6 -3 -24 -1
q-5 1 1 2q5 -1 18 3q2 0 5 2q13 4 22 6h1q3 1 3 3q-1 4 -4 9zM78 192q3 -4 6 -5q4 -4 0 -6q-3 -2 -10 -6q-13 -9 -21 -13q-6 -4 -1 2q12 10 20 20q0 1 1 2q2 2 3 5q-2 5 2 1zM76 141q-1 2 0 3q1 0 4 -2q8 -5 2 -10q-11 -14 -11 -24q0 -5 -1 -9q-2 -12 -3 -34t0 -48
q0 -9 9 -20l10 -14q-1 -5 -5 -4q-7 4 -14 16q-2 3 -4 5q-3 4 -10 13q-1 6 6 6q4 -3 4 5q-1 50 2 80q-27 -34 -58 -60q-3 -3 -4 -2q-1 2 3 5q56 53 70 94z" />
  </g>

</svg>
